%TF.GenerationSoftware,KiCad,Pcbnew,(5.1.6)-1*%
%TF.CreationDate,2024-12-26T07:47:20-05:00*%
%TF.ProjectId,board,626f6172-642e-46b6-9963-61645f706362,rev?*%
%TF.SameCoordinates,PX348c260PY7258760*%
%TF.FileFunction,Soldermask,Bot*%
%TF.FilePolarity,Negative*%
%FSLAX46Y46*%
G04 Gerber Fmt 4.6, Leading zero omitted, Abs format (unit mm)*
G04 Created by KiCad (PCBNEW (5.1.6)-1) date 2024-12-26 07:47:20*
%MOMM*%
%LPD*%
G01*
G04 APERTURE LIST*
%ADD10C,3.200000*%
%ADD11O,3.470000X2.200000*%
%ADD12O,2.200000X3.470000*%
%ADD13R,2.200000X3.470000*%
%ADD14O,3.200000X1.900000*%
%ADD15C,2.200000*%
G04 APERTURE END LIST*
D10*
%TO.C,REF\u002A\u002A*%
X72500000Y46500000D03*
%TD*%
%TO.C,REF\u002A\u002A*%
X72500000Y3000000D03*
%TD*%
%TO.C,REF\u002A\u002A*%
X16000000Y3000000D03*
%TD*%
%TO.C,REF\u002A\u002A*%
X3000000Y46500000D03*
%TD*%
D11*
%TO.C,C1*%
X68712000Y7489000D03*
X63742000Y7489000D03*
%TD*%
%TO.C,D1*%
X54780000Y22110000D03*
X63670000Y22110000D03*
%TD*%
%TO.C,R1*%
X21265000Y21840000D03*
X30155000Y21840000D03*
%TD*%
%TO.C,R2*%
X42855000Y19300000D03*
X33965000Y19300000D03*
%TD*%
%TO.C,R3*%
X33965000Y21840000D03*
X42855000Y21840000D03*
%TD*%
%TO.C,R4*%
X21165000Y19200000D03*
X30055000Y19200000D03*
%TD*%
D12*
%TO.C,U1*%
X63810000Y41525000D03*
X61270000Y41525000D03*
X58730000Y41525000D03*
X56190000Y41525000D03*
X53650000Y41525000D03*
X51110000Y41525000D03*
X48570000Y41525000D03*
X46030000Y41525000D03*
X43490000Y41525000D03*
X40950000Y41525000D03*
X38410000Y41525000D03*
X35870000Y41525000D03*
X33330000Y41525000D03*
X30790000Y41525000D03*
X28250000Y41525000D03*
D13*
X28250000Y14855000D03*
X30790000Y14855000D03*
X33330000Y14855000D03*
X35870000Y14855000D03*
X38410000Y14855000D03*
X40950000Y14855000D03*
X43490000Y14855000D03*
X46030000Y14855000D03*
X48570000Y14855000D03*
D12*
X51110000Y14855000D03*
X53650000Y14855000D03*
X56190000Y14855000D03*
X58730000Y14855000D03*
X61270000Y14855000D03*
X63810000Y14855000D03*
%TD*%
D14*
%TO.C,C2*%
X22750000Y15500000D03*
X26150000Y15500000D03*
%TD*%
D11*
%TO.C,D2*%
X16522000Y31289000D03*
X25412000Y31289000D03*
%TD*%
%TO.C,M1*%
X29535000Y28800000D03*
X43505000Y28800000D03*
X43505000Y38300000D03*
X29535000Y38300000D03*
%TD*%
%TO.C,R5*%
X21265000Y24380000D03*
X30155000Y24380000D03*
%TD*%
D12*
%TO.C,R6*%
X17177000Y42144000D03*
D15*
X17177000Y33889000D03*
%TD*%
D12*
%TO.C,J2*%
X13760000Y18665000D03*
X11220000Y18665000D03*
X8680000Y18665000D03*
X6140000Y18665000D03*
X3600000Y18665000D03*
%TD*%
%TO.C,Q1*%
X5820000Y40865000D03*
X8360000Y40865000D03*
X10900000Y40865000D03*
%TD*%
D15*
%TO.C,R7*%
X18077000Y24309000D03*
X18077000Y16689000D03*
%TD*%
D11*
%TO.C,SW1*%
X31787000Y8468500D03*
X31787000Y3968500D03*
X26557000Y8468500D03*
X26557000Y3968500D03*
%TD*%
%TO.C,SW2*%
X39257000Y3968500D03*
X39257000Y8468500D03*
X44487000Y3968500D03*
X44487000Y8468500D03*
%TD*%
%TO.C,SW3*%
X57187000Y8468500D03*
X57187000Y3968500D03*
X51957000Y8468500D03*
X51957000Y3968500D03*
%TD*%
D15*
X24788000Y28800000D03*
X24469990Y12169990D03*
X17977000Y12289000D03*
X40349500Y26364000D03*
X47906000Y33857000D03*
X57631126Y33857000D03*
X18077000Y26789000D03*
X47032500Y19300000D03*
X63810000Y19344500D03*
M02*
