%TF.GenerationSoftware,KiCad,Pcbnew,(5.1.6)-1*%
%TF.CreationDate,2024-12-26T07:47:20-05:00*%
%TF.ProjectId,board,626f6172-642e-46b6-9963-61645f706362,rev?*%
%TF.SameCoordinates,PX348c260PY7258760*%
%TF.FileFunction,Copper,L2,Bot*%
%TF.FilePolarity,Positive*%
%FSLAX46Y46*%
G04 Gerber Fmt 4.6, Leading zero omitted, Abs format (unit mm)*
G04 Created by KiCad (PCBNEW (5.1.6)-1) date 2024-12-26 07:47:20*
%MOMM*%
%LPD*%
G01*
G04 APERTURE LIST*
%TA.AperFunction,ComponentPad*%
%ADD10O,3.470000X2.200000*%
%TD*%
%TA.AperFunction,ComponentPad*%
%ADD11O,2.200000X3.470000*%
%TD*%
%TA.AperFunction,ComponentPad*%
%ADD12R,2.200000X3.470000*%
%TD*%
%TA.AperFunction,ComponentPad*%
%ADD13O,3.200000X1.900000*%
%TD*%
%TA.AperFunction,ComponentPad*%
%ADD14C,2.200000*%
%TD*%
%TA.AperFunction,ViaPad*%
%ADD15C,2.200000*%
%TD*%
%TA.AperFunction,Conductor*%
%ADD16C,2.200000*%
%TD*%
%TA.AperFunction,Conductor*%
%ADD17C,1.500000*%
%TD*%
%TA.AperFunction,Conductor*%
%ADD18C,0.250000*%
%TD*%
G04 APERTURE END LIST*
D10*
%TO.P,C1,2*%
%TO.N,GND*%
X68712000Y7489000D03*
%TO.P,C1,1*%
%TO.N,+5V*%
X63742000Y7489000D03*
%TD*%
%TO.P,D1,2*%
%TO.N,Net-(D1-Pad2)*%
X54780000Y22110000D03*
%TO.P,D1,1*%
%TO.N,+5V*%
X63670000Y22110000D03*
%TD*%
%TO.P,R1,2*%
%TO.N,+12V*%
X21265000Y21840000D03*
%TO.P,R1,1*%
%TO.N,S_12V*%
X30155000Y21840000D03*
%TD*%
%TO.P,R2,2*%
%TO.N,+5V*%
X42855000Y19300000D03*
%TO.P,R2,1*%
%TO.N,S_5V*%
X33965000Y19300000D03*
%TD*%
%TO.P,R3,2*%
%TO.N,S_12V*%
X33965000Y21840000D03*
%TO.P,R3,1*%
%TO.N,GND*%
X42855000Y21840000D03*
%TD*%
%TO.P,R4,1*%
%TO.N,GND*%
X21165000Y19200000D03*
%TO.P,R4,2*%
%TO.N,S_5V*%
X30055000Y19200000D03*
%TD*%
D11*
%TO.P,U1,30*%
%TO.N,+3V3*%
X63810000Y41525000D03*
%TO.P,U1,29*%
%TO.N,GND*%
X61270000Y41525000D03*
%TO.P,U1,28*%
%TO.N,Net-(U1-Pad28)*%
X58730000Y41525000D03*
%TO.P,U1,27*%
%TO.N,ONBOARD_LED*%
X56190000Y41525000D03*
%TO.P,U1,26*%
%TO.N,Net-(U1-Pad26)*%
X53650000Y41525000D03*
%TO.P,U1,25*%
%TO.N,Net-(U1-Pad25)*%
X51110000Y41525000D03*
%TO.P,U1,24*%
%TO.N,Net-(U1-Pad24)*%
X48570000Y41525000D03*
%TO.P,U1,23*%
%TO.N,Net-(U1-Pad23)*%
X46030000Y41525000D03*
%TO.P,U1,22*%
%TO.N,Net-(U1-Pad22)*%
X43490000Y41525000D03*
%TO.P,U1,21*%
%TO.N,Net-(U1-Pad21)*%
X40950000Y41525000D03*
%TO.P,U1,20*%
%TO.N,SDA*%
X38410000Y41525000D03*
%TO.P,U1,19*%
%TO.N,Net-(U1-Pad19)*%
X35870000Y41525000D03*
%TO.P,U1,18*%
%TO.N,Net-(U1-Pad18)*%
X33330000Y41525000D03*
%TO.P,U1,17*%
%TO.N,SCL*%
X30790000Y41525000D03*
%TO.P,U1,16*%
%TO.N,Net-(U1-Pad16)*%
X28250000Y41525000D03*
D12*
%TO.P,U1,15*%
%TO.N,EN*%
X28250000Y14855000D03*
%TO.P,U1,14*%
%TO.N,Net-(U1-Pad14)*%
X30790000Y14855000D03*
%TO.P,U1,13*%
%TO.N,S_5V*%
X33330000Y14855000D03*
%TO.P,U1,12*%
%TO.N,S_12V*%
X35870000Y14855000D03*
%TO.P,U1,11*%
%TO.N,Net-(U1-Pad11)*%
X38410000Y14855000D03*
%TO.P,U1,10*%
%TO.N,RELAY*%
X40950000Y14855000D03*
%TO.P,U1,9*%
%TO.N,ONE_WIRE*%
X43490000Y14855000D03*
%TO.P,U1,8*%
%TO.N,BUTTON1*%
X46030000Y14855000D03*
%TO.P,U1,7*%
%TO.N,BUTTON2*%
X48570000Y14855000D03*
D11*
%TO.P,U1,6*%
%TO.N,Net-(U1-Pad6)*%
X51110000Y14855000D03*
%TO.P,U1,5*%
%TO.N,Net-(U1-Pad5)*%
X53650000Y14855000D03*
%TO.P,U1,4*%
%TO.N,Net-(U1-Pad4)*%
X56190000Y14855000D03*
%TO.P,U1,3*%
%TO.N,BUTTON3*%
X58730000Y14855000D03*
%TO.P,U1,2*%
%TO.N,GND*%
X61270000Y14855000D03*
%TO.P,U1,1*%
%TO.N,+5V*%
X63810000Y14855000D03*
%TD*%
D13*
%TO.P,C2,2*%
%TO.N,GND*%
X22750000Y15500000D03*
%TO.P,C2,1*%
%TO.N,EN*%
X26150000Y15500000D03*
%TD*%
D10*
%TO.P,D2,2*%
%TO.N,FAN-*%
X16522000Y31289000D03*
%TO.P,D2,1*%
%TO.N,+12V*%
X25412000Y31289000D03*
%TD*%
%TO.P,M1,4*%
%TO.N,+12V*%
X29535000Y28800000D03*
%TO.P,M1,3*%
%TO.N,Net-(D1-Pad2)*%
X43505000Y28800000D03*
%TO.P,M1,2*%
%TO.N,GND*%
X43505000Y38300000D03*
%TO.P,M1,1*%
X29535000Y38300000D03*
%TD*%
%TO.P,R5,2*%
%TO.N,Net-(Q1-Pad1)*%
X21265000Y24380000D03*
%TO.P,R5,1*%
%TO.N,RELAY*%
X30155000Y24380000D03*
%TD*%
D11*
%TO.P,R6,2*%
%TO.N,GND*%
X17177000Y42144000D03*
D14*
%TO.P,R6,1*%
%TO.N,Net-(Q1-Pad1)*%
X17177000Y33889000D03*
%TD*%
D11*
%TO.P,J2,5*%
%TO.N,ONE_WIRE*%
X13760000Y18665000D03*
%TO.P,J2,4*%
%TO.N,+12V*%
X11220000Y18665000D03*
%TO.P,J2,3*%
%TO.N,+3V3*%
X8680000Y18665000D03*
%TO.P,J2,2*%
%TO.N,FAN-*%
X6140000Y18665000D03*
%TO.P,J2,1*%
%TO.N,GND*%
X3600000Y18665000D03*
%TD*%
%TO.P,Q1,3*%
%TO.N,GND*%
X5820000Y40865000D03*
%TO.P,Q1,2*%
%TO.N,FAN-*%
X8360000Y40865000D03*
%TO.P,Q1,1*%
%TO.N,Net-(Q1-Pad1)*%
X10900000Y40865000D03*
%TD*%
D14*
%TO.P,R7,2*%
%TO.N,+3V3*%
X18077000Y24309000D03*
%TO.P,R7,1*%
%TO.N,ONE_WIRE*%
X18077000Y16689000D03*
%TD*%
D10*
%TO.P,SW1,2*%
%TO.N,BUTTON1*%
X31787000Y8468500D03*
%TO.P,SW1,1*%
%TO.N,GND*%
X31787000Y3968500D03*
%TO.P,SW1,2*%
%TO.N,BUTTON1*%
X26557000Y8468500D03*
%TO.P,SW1,1*%
%TO.N,GND*%
X26557000Y3968500D03*
%TD*%
%TO.P,SW2,1*%
%TO.N,GND*%
X39257000Y3968500D03*
%TO.P,SW2,2*%
%TO.N,BUTTON2*%
X39257000Y8468500D03*
%TO.P,SW2,1*%
%TO.N,GND*%
X44487000Y3968500D03*
%TO.P,SW2,2*%
%TO.N,BUTTON2*%
X44487000Y8468500D03*
%TD*%
%TO.P,SW3,2*%
%TO.N,BUTTON3*%
X57187000Y8468500D03*
%TO.P,SW3,1*%
%TO.N,GND*%
X57187000Y3968500D03*
%TO.P,SW3,2*%
%TO.N,BUTTON3*%
X51957000Y8468500D03*
%TO.P,SW3,1*%
%TO.N,GND*%
X51957000Y3968500D03*
%TD*%
D15*
%TO.N,+12V*%
X24788000Y28800000D03*
%TO.N,ONE_WIRE*%
X24469990Y12169990D03*
X17977000Y12289000D03*
%TO.N,+3V3*%
X40349500Y26364000D03*
X47906000Y33857000D03*
X57631126Y33857000D03*
X18077000Y26789000D03*
%TO.N,+5V*%
X47032500Y19300000D03*
X63810000Y19344500D03*
%TD*%
D16*
%TO.N,Net-(D1-Pad2)*%
X44140000Y28800000D02*
X47700000Y28800000D01*
X54400000Y22100000D02*
X47700000Y28800000D01*
%TO.N,+12V*%
X11199991Y18127509D02*
X11266500Y18061000D01*
X26066000Y28800000D02*
X26066000Y31278000D01*
X26066000Y28800000D02*
X24788000Y28800000D01*
X28900000Y28800000D02*
X26066000Y28800000D01*
X24788000Y28800000D02*
X24788000Y28800000D01*
X22754126Y21840000D02*
X24788000Y23873874D01*
X24788000Y23873874D02*
X24788000Y28800000D01*
X21900000Y21840000D02*
X22754126Y21840000D01*
X11220000Y20154126D02*
X12854874Y21789000D01*
X11220000Y19300000D02*
X11220000Y20154126D01*
X12854874Y21789000D02*
X21877000Y21789000D01*
%TO.N,S_12V*%
X29520000Y21840000D02*
X34460000Y21840000D01*
X37000010Y20294116D02*
X37000010Y18305884D01*
X34600000Y21840000D02*
X35454126Y21840000D01*
X35454126Y21840000D02*
X37000010Y20294116D01*
X37000010Y18305884D02*
X35900000Y17205874D01*
X35900000Y17205874D02*
X35900000Y15600000D01*
D17*
%TO.N,RELAY*%
X40900000Y15700000D02*
X40900000Y15899151D01*
X31520000Y24380000D02*
X32009990Y23890010D01*
X29520000Y24380000D02*
X31520000Y24380000D01*
D16*
X40950000Y14220000D02*
X40950000Y17175874D01*
X39819990Y18305884D02*
X39819990Y20294116D01*
X35454116Y24240010D02*
X29600000Y24240010D01*
X40950000Y17175874D02*
X39819990Y18305884D01*
X36448242Y24240010D02*
X35454116Y24240010D01*
X39819990Y20294116D02*
X40095874Y20570000D01*
X40095874Y20570000D02*
X40095874Y20592378D01*
X38094126Y22594126D02*
X39400020Y21288232D01*
X38094126Y22594126D02*
X36448242Y24240010D01*
X40095874Y20592378D02*
X38094126Y22594126D01*
X39400020Y21288232D02*
X39400020Y18600000D01*
D17*
%TO.N,BUTTON1*%
X25922000Y8468500D02*
X32002000Y8468500D01*
X46030000Y14220000D02*
X45820000Y14220000D01*
X45206671Y12169999D02*
X43506652Y10469980D01*
X43506652Y10469980D02*
X42503308Y10469980D01*
X42503308Y10469980D02*
X34177000Y10469980D01*
X45466256Y12429584D02*
X45466256Y12478256D01*
X45206671Y12169999D02*
X45466256Y12429584D01*
X45466256Y12478256D02*
X46377000Y13389000D01*
X34177000Y10469980D02*
X34157980Y10469980D01*
X34157980Y10469980D02*
X32077000Y8389000D01*
%TO.N,BUTTON2*%
X38622000Y8468500D02*
X45182000Y8468500D01*
X45122000Y8468500D02*
X45122000Y9681151D01*
X45122000Y9681151D02*
X48677000Y13236151D01*
X45122000Y9681151D02*
X44210819Y8769970D01*
%TO.N,BUTTON3*%
X51322000Y8468500D02*
X57382000Y8468500D01*
X58730000Y14220000D02*
X58730000Y13730000D01*
X58730000Y14220000D02*
X58730000Y9542000D01*
X58730000Y9542000D02*
X57677000Y8489000D01*
%TO.N,ONE_WIRE*%
X43490000Y14220000D02*
X43490000Y13860849D01*
X41799141Y12169990D02*
X24469990Y12169990D01*
X41799141Y12169990D02*
X42802485Y12169990D01*
X42802485Y12169990D02*
X43766248Y13133752D01*
D16*
X13760000Y19300000D02*
X13800000Y19300000D01*
X13760000Y19300000D02*
X13760000Y18406000D01*
X17288000Y19300000D02*
X17377000Y19389000D01*
X13760000Y19300000D02*
X17288000Y19300000D01*
X17377000Y19389000D02*
X17977000Y19389000D01*
X17977000Y19389000D02*
X17977000Y12289000D01*
X17977000Y12289000D02*
X17977000Y12289000D01*
D17*
%TO.N,+3V3*%
X63810000Y42160000D02*
X63810000Y40530849D01*
D16*
X63810000Y40035874D02*
X57631126Y33857000D01*
X63810000Y42160000D02*
X63810000Y40035874D01*
X44532874Y33857000D02*
X40349500Y29673626D01*
X40349500Y29673626D02*
X40349500Y26364000D01*
X40349500Y26364000D02*
X40349500Y26364000D01*
X47906000Y33857000D02*
X44532874Y33857000D01*
X57631126Y33857000D02*
X57631126Y33857000D01*
X8819991Y21148243D02*
X11860758Y24189010D01*
X8680000Y19300000D02*
X8688000Y19300000D01*
X8819990Y19431990D02*
X8819991Y21148243D01*
X8688000Y19300000D02*
X8819990Y19431990D01*
X11860758Y24189010D02*
X17277000Y24189010D01*
X18077000Y24309000D02*
X18077000Y26789000D01*
X18077000Y26789000D02*
X18077000Y26889000D01*
%TO.N,FAN-*%
X6140000Y19300000D02*
X6200000Y19300000D01*
X8765088Y33057500D02*
X8345500Y33057500D01*
X10377000Y31445588D02*
X8765088Y33057500D01*
X10377000Y31289000D02*
X10377000Y31445588D01*
X17157000Y31289000D02*
X10377000Y31289000D01*
X8345500Y33057500D02*
X8345500Y41429000D01*
X8345500Y33057500D02*
X8345500Y24067878D01*
X8345500Y24067878D02*
X6277000Y21999378D01*
X6277000Y21999378D02*
X6277000Y18189000D01*
%TO.N,Net-(Q1-Pad1)*%
X21900000Y24380000D02*
X20768000Y24380000D01*
X10745510Y39221384D02*
X10760010Y39235884D01*
X10745510Y34558010D02*
X10745510Y39221384D01*
D17*
X21900000Y24380000D02*
X20934000Y24380000D01*
D16*
X21900000Y24380000D02*
X21696000Y24380000D01*
X11414520Y33889000D02*
X10745510Y34558010D01*
X17177000Y33889000D02*
X11414520Y33889000D01*
X20577010Y31263116D02*
X17951126Y33889000D01*
X20577010Y25388990D02*
X20577010Y31263116D01*
X21900000Y24380000D02*
X21586000Y24380000D01*
X17951126Y33889000D02*
X17077000Y33889000D01*
X21586000Y24380000D02*
X20577010Y25388990D01*
%TO.N,EN*%
X25700000Y15500000D02*
X28300000Y15500000D01*
%TO.N,+5V*%
X63810000Y14220000D02*
X63810000Y19344500D01*
X42220000Y19300000D02*
X47032500Y19300000D01*
X47032500Y19300000D02*
X47032500Y19300000D01*
X63810000Y19344500D02*
X63810000Y22160500D01*
X63810000Y14220000D02*
X63810000Y7556000D01*
X63810000Y7556000D02*
X63877000Y7489000D01*
%TO.N,S_5V*%
X33330000Y14330000D02*
X33300000Y14360000D01*
X33330000Y14220000D02*
X33330000Y14330000D01*
X33300000Y14360000D02*
X33300000Y19100000D01*
X29420000Y19200000D02*
X34300000Y19200000D01*
%TD*%
D18*
%TO.N,GND*%
G36*
X75075001Y425000D02*
G01*
X13425000Y425000D01*
X13425000Y3194521D01*
X14025000Y3194521D01*
X14025000Y2805479D01*
X14100898Y2423914D01*
X14249778Y2064487D01*
X14465917Y1741011D01*
X14741011Y1465917D01*
X15064487Y1249778D01*
X15423914Y1100898D01*
X15805479Y1025000D01*
X16194521Y1025000D01*
X16576086Y1100898D01*
X16935513Y1249778D01*
X17258989Y1465917D01*
X17534083Y1741011D01*
X17750222Y2064487D01*
X17899102Y2423914D01*
X17975000Y2805479D01*
X17975000Y3194521D01*
X70525000Y3194521D01*
X70525000Y2805479D01*
X70600898Y2423914D01*
X70749778Y2064487D01*
X70965917Y1741011D01*
X71241011Y1465917D01*
X71564487Y1249778D01*
X71923914Y1100898D01*
X72305479Y1025000D01*
X72694521Y1025000D01*
X73076086Y1100898D01*
X73435513Y1249778D01*
X73758989Y1465917D01*
X74034083Y1741011D01*
X74250222Y2064487D01*
X74399102Y2423914D01*
X74475000Y2805479D01*
X74475000Y3194521D01*
X74399102Y3576086D01*
X74250222Y3935513D01*
X74034083Y4258989D01*
X73758989Y4534083D01*
X73435513Y4750222D01*
X73076086Y4899102D01*
X72694521Y4975000D01*
X72305479Y4975000D01*
X71923914Y4899102D01*
X71564487Y4750222D01*
X71241011Y4534083D01*
X70965917Y4258989D01*
X70749778Y3935513D01*
X70600898Y3576086D01*
X70525000Y3194521D01*
X17975000Y3194521D01*
X17899102Y3576086D01*
X17750222Y3935513D01*
X17534083Y4258989D01*
X17258989Y4534083D01*
X16935513Y4750222D01*
X16576086Y4899102D01*
X16194521Y4975000D01*
X15805479Y4975000D01*
X15423914Y4899102D01*
X15064487Y4750222D01*
X14741011Y4534083D01*
X14465917Y4258989D01*
X14249778Y3935513D01*
X14100898Y3576086D01*
X14025000Y3194521D01*
X13425000Y3194521D01*
X13425000Y12979127D01*
X13427056Y13000000D01*
X13418850Y13083314D01*
X13394548Y13163427D01*
X13355084Y13237260D01*
X13301974Y13301974D01*
X13237260Y13355084D01*
X13163427Y13394548D01*
X13083314Y13418850D01*
X13020874Y13425000D01*
X13000000Y13427056D01*
X12979126Y13425000D01*
X425000Y13425000D01*
X425000Y19300000D01*
X4657864Y19300000D01*
X4665000Y19227549D01*
X4665000Y17957548D01*
X4686343Y17740850D01*
X4770685Y17462811D01*
X4907650Y17206569D01*
X5091973Y16981972D01*
X5316570Y16797649D01*
X5572812Y16660685D01*
X5850851Y16576343D01*
X6140000Y16547864D01*
X6429150Y16576343D01*
X6707189Y16660685D01*
X6963431Y16797649D01*
X7188028Y16981972D01*
X7305084Y17124604D01*
X7325028Y17140972D01*
X7420519Y17257327D01*
X7447650Y17206569D01*
X7631973Y16981972D01*
X7856570Y16797649D01*
X8112812Y16660685D01*
X8390851Y16576343D01*
X8680000Y16547864D01*
X8969150Y16576343D01*
X9247189Y16660685D01*
X9503431Y16797649D01*
X9728028Y16981972D01*
X9912351Y17206569D01*
X9950000Y17277006D01*
X9987650Y17206569D01*
X10171973Y16981972D01*
X10396570Y16797649D01*
X10652812Y16660685D01*
X10930851Y16576343D01*
X11220000Y16547864D01*
X11509150Y16576343D01*
X11787189Y16660685D01*
X12043431Y16797649D01*
X12064910Y16815276D01*
X12089930Y16828650D01*
X12314528Y17012972D01*
X12498850Y17237570D01*
X12504965Y17249010D01*
X12527650Y17206569D01*
X12711973Y16981972D01*
X12936570Y16797649D01*
X13192812Y16660685D01*
X13470851Y16576343D01*
X13760000Y16547864D01*
X14049150Y16576343D01*
X14327189Y16660685D01*
X14583431Y16797649D01*
X14808028Y16981972D01*
X14992351Y17206569D01*
X15129315Y17462811D01*
X15213657Y17740850D01*
X15221945Y17825000D01*
X16502000Y17825000D01*
X16502001Y12434280D01*
X16502000Y12434275D01*
X16502000Y12361452D01*
X16494864Y12289000D01*
X16502000Y12216548D01*
X16502000Y12143725D01*
X16516207Y12072300D01*
X16523343Y11999850D01*
X16544475Y11930187D01*
X16558683Y11858758D01*
X16586553Y11791474D01*
X16607685Y11721811D01*
X16642003Y11657606D01*
X16669872Y11590325D01*
X16710330Y11529776D01*
X16744649Y11465569D01*
X16790835Y11409291D01*
X16831293Y11348742D01*
X16882788Y11297247D01*
X16928972Y11240972D01*
X16985247Y11194788D01*
X17036742Y11143293D01*
X17097291Y11102835D01*
X17153569Y11056649D01*
X17217776Y11022330D01*
X17278325Y10981872D01*
X17345606Y10954003D01*
X17409811Y10919685D01*
X17479474Y10898553D01*
X17546758Y10870683D01*
X17618187Y10856475D01*
X17687850Y10835343D01*
X17760299Y10828207D01*
X17831725Y10814000D01*
X17904548Y10814000D01*
X17977000Y10806864D01*
X18049452Y10814000D01*
X18122275Y10814000D01*
X18193701Y10828207D01*
X18266150Y10835343D01*
X18335813Y10856475D01*
X18407242Y10870683D01*
X18474526Y10898553D01*
X18544189Y10919685D01*
X18608394Y10954003D01*
X18675675Y10981872D01*
X18736224Y11022330D01*
X18800431Y11056649D01*
X18856709Y11102835D01*
X18917258Y11143293D01*
X18968753Y11194788D01*
X19025028Y11240972D01*
X19071212Y11297247D01*
X19122707Y11348742D01*
X19163165Y11409291D01*
X19209351Y11465569D01*
X19243670Y11529776D01*
X19284128Y11590325D01*
X19311997Y11657606D01*
X19346315Y11721811D01*
X19367447Y11791474D01*
X19395317Y11858758D01*
X19409525Y11930187D01*
X19430657Y11999850D01*
X19437793Y12072300D01*
X19452000Y12143725D01*
X19452000Y12216548D01*
X19459136Y12289000D01*
X19456550Y12315265D01*
X22994990Y12315265D01*
X22994990Y12024715D01*
X23051673Y11739748D01*
X23162862Y11471315D01*
X23324283Y11229732D01*
X23529732Y11024283D01*
X23771315Y10862862D01*
X24039748Y10751673D01*
X24324715Y10694990D01*
X24615265Y10694990D01*
X24900232Y10751673D01*
X25168665Y10862862D01*
X25410248Y11024283D01*
X25430955Y11044990D01*
X33142000Y11044990D01*
X32040511Y9943500D01*
X31079548Y9943500D01*
X30862850Y9922157D01*
X30584811Y9837815D01*
X30328569Y9700851D01*
X30197762Y9593500D01*
X28146238Y9593500D01*
X28015431Y9700851D01*
X27759189Y9837815D01*
X27481150Y9922157D01*
X27264452Y9943500D01*
X25849548Y9943500D01*
X25632850Y9922157D01*
X25354811Y9837815D01*
X25098569Y9700851D01*
X24873972Y9516528D01*
X24689649Y9291931D01*
X24552685Y9035689D01*
X24468343Y8757650D01*
X24439864Y8468500D01*
X24468343Y8179350D01*
X24552685Y7901311D01*
X24689649Y7645069D01*
X24873972Y7420472D01*
X25098569Y7236149D01*
X25354811Y7099185D01*
X25632850Y7014843D01*
X25849548Y6993500D01*
X27264452Y6993500D01*
X27481150Y7014843D01*
X27759189Y7099185D01*
X28015431Y7236149D01*
X28146238Y7343500D01*
X30197762Y7343500D01*
X30328569Y7236149D01*
X30584811Y7099185D01*
X30862850Y7014843D01*
X31079548Y6993500D01*
X32494452Y6993500D01*
X32711150Y7014843D01*
X32989189Y7099185D01*
X33245431Y7236149D01*
X33470028Y7420472D01*
X33654351Y7645069D01*
X33791315Y7901311D01*
X33875657Y8179350D01*
X33904136Y8468500D01*
X33890091Y8611101D01*
X34623970Y9344980D01*
X37433185Y9344980D01*
X37389649Y9291931D01*
X37252685Y9035689D01*
X37168343Y8757650D01*
X37139864Y8468500D01*
X37168343Y8179350D01*
X37252685Y7901311D01*
X37389649Y7645069D01*
X37573972Y7420472D01*
X37798569Y7236149D01*
X38054811Y7099185D01*
X38332850Y7014843D01*
X38549548Y6993500D01*
X39964452Y6993500D01*
X40181150Y7014843D01*
X40459189Y7099185D01*
X40715431Y7236149D01*
X40846238Y7343500D01*
X42897762Y7343500D01*
X43028569Y7236149D01*
X43284811Y7099185D01*
X43562850Y7014843D01*
X43779548Y6993500D01*
X45194452Y6993500D01*
X45411150Y7014843D01*
X45689189Y7099185D01*
X45945431Y7236149D01*
X46170028Y7420472D01*
X46354351Y7645069D01*
X46491315Y7901311D01*
X46575657Y8179350D01*
X46604136Y8468500D01*
X46575657Y8757650D01*
X46491315Y9035689D01*
X46354351Y9291931D01*
X46340566Y9308728D01*
X49511572Y12479733D01*
X49616928Y12608109D01*
X49690191Y12745175D01*
X49743513Y12750426D01*
X49814200Y12771869D01*
X49879347Y12806691D01*
X49936448Y12853552D01*
X49983309Y12910653D01*
X50018131Y12975800D01*
X50039574Y13046487D01*
X50046814Y13120000D01*
X50046814Y13190443D01*
X50061972Y13171973D01*
X50286569Y12987649D01*
X50542811Y12850685D01*
X50820850Y12766343D01*
X51110000Y12737864D01*
X51399149Y12766343D01*
X51677188Y12850685D01*
X51933430Y12987649D01*
X52158027Y13171972D01*
X52342351Y13396569D01*
X52380000Y13467006D01*
X52417649Y13396570D01*
X52601972Y13171973D01*
X52826569Y12987649D01*
X53082811Y12850685D01*
X53360850Y12766343D01*
X53650000Y12737864D01*
X53939149Y12766343D01*
X54217188Y12850685D01*
X54473430Y12987649D01*
X54698027Y13171972D01*
X54882351Y13396569D01*
X54920000Y13467006D01*
X54957649Y13396570D01*
X55141972Y13171973D01*
X55366569Y12987649D01*
X55622811Y12850685D01*
X55900850Y12766343D01*
X56190000Y12737864D01*
X56479149Y12766343D01*
X56757188Y12850685D01*
X57013430Y12987649D01*
X57238027Y13171972D01*
X57422351Y13396569D01*
X57460000Y13467006D01*
X57497649Y13396570D01*
X57605000Y13265763D01*
X57605001Y10007991D01*
X57540510Y9943500D01*
X56479548Y9943500D01*
X56262850Y9922157D01*
X55984811Y9837815D01*
X55728569Y9700851D01*
X55597762Y9593500D01*
X53546238Y9593500D01*
X53415431Y9700851D01*
X53159189Y9837815D01*
X52881150Y9922157D01*
X52664452Y9943500D01*
X51249548Y9943500D01*
X51032850Y9922157D01*
X50754811Y9837815D01*
X50498569Y9700851D01*
X50273972Y9516528D01*
X50089649Y9291931D01*
X49952685Y9035689D01*
X49868343Y8757650D01*
X49839864Y8468500D01*
X49868343Y8179350D01*
X49952685Y7901311D01*
X50089649Y7645069D01*
X50273972Y7420472D01*
X50498569Y7236149D01*
X50754811Y7099185D01*
X51032850Y7014843D01*
X51249548Y6993500D01*
X52664452Y6993500D01*
X52881150Y7014843D01*
X53159189Y7099185D01*
X53415431Y7236149D01*
X53546238Y7343500D01*
X55597762Y7343500D01*
X55728569Y7236149D01*
X55984811Y7099185D01*
X56262850Y7014843D01*
X56479548Y6993500D01*
X57894452Y6993500D01*
X58111150Y7014843D01*
X58389189Y7099185D01*
X58645431Y7236149D01*
X58870028Y7420472D01*
X59054351Y7645069D01*
X59191315Y7901311D01*
X59275657Y8179350D01*
X59304136Y8468500D01*
X59299057Y8520067D01*
X59486416Y8707426D01*
X59529344Y8742656D01*
X59669929Y8913960D01*
X59774393Y9109398D01*
X59838722Y9321462D01*
X59855000Y9486736D01*
X59855000Y9486738D01*
X59860443Y9542000D01*
X59855000Y9597261D01*
X59855000Y13265763D01*
X59962351Y13396569D01*
X60099315Y13652811D01*
X60183657Y13930850D01*
X60205000Y14147548D01*
X60205000Y15562452D01*
X60183657Y15779150D01*
X60099315Y16057189D01*
X59962351Y16313431D01*
X59778028Y16538028D01*
X59553431Y16722351D01*
X59297189Y16859315D01*
X59019150Y16943657D01*
X58730000Y16972136D01*
X58440851Y16943657D01*
X58162812Y16859315D01*
X57906570Y16722351D01*
X57681973Y16538028D01*
X57497650Y16313431D01*
X57460000Y16242994D01*
X57422351Y16313431D01*
X57238028Y16538028D01*
X57013431Y16722351D01*
X56757189Y16859315D01*
X56479150Y16943657D01*
X56190000Y16972136D01*
X55900851Y16943657D01*
X55622812Y16859315D01*
X55366570Y16722351D01*
X55141973Y16538028D01*
X54957650Y16313431D01*
X54920000Y16242994D01*
X54882351Y16313431D01*
X54698028Y16538028D01*
X54473431Y16722351D01*
X54217189Y16859315D01*
X53939150Y16943657D01*
X53650000Y16972136D01*
X53360851Y16943657D01*
X53082812Y16859315D01*
X52826570Y16722351D01*
X52601973Y16538028D01*
X52417650Y16313431D01*
X52380000Y16242994D01*
X52342351Y16313431D01*
X52158028Y16538028D01*
X51933431Y16722351D01*
X51677189Y16859315D01*
X51399150Y16943657D01*
X51110000Y16972136D01*
X50820851Y16943657D01*
X50542812Y16859315D01*
X50286570Y16722351D01*
X50061973Y16538028D01*
X50046814Y16519557D01*
X50046814Y16590000D01*
X50039574Y16663513D01*
X50018131Y16734200D01*
X49983309Y16799347D01*
X49936448Y16856448D01*
X49879347Y16903309D01*
X49814200Y16938131D01*
X49743513Y16959574D01*
X49670000Y16966814D01*
X47470000Y16966814D01*
X47396487Y16959574D01*
X47325800Y16938131D01*
X47300000Y16924341D01*
X47274200Y16938131D01*
X47203513Y16959574D01*
X47130000Y16966814D01*
X44930000Y16966814D01*
X44856487Y16959574D01*
X44785800Y16938131D01*
X44760000Y16924341D01*
X44734200Y16938131D01*
X44663513Y16959574D01*
X44590000Y16966814D01*
X42425000Y16966814D01*
X42425000Y17103430D01*
X42432135Y17175875D01*
X42425000Y17248320D01*
X42425000Y17248326D01*
X42403657Y17465024D01*
X42319315Y17743063D01*
X42275519Y17825000D01*
X47177775Y17825000D01*
X47249201Y17839207D01*
X47321650Y17846343D01*
X47391313Y17867475D01*
X47462742Y17881683D01*
X47530026Y17909553D01*
X47599689Y17930685D01*
X47663894Y17965003D01*
X47731175Y17992872D01*
X47791724Y18033330D01*
X47855931Y18067649D01*
X47912209Y18113835D01*
X47972758Y18154293D01*
X48024253Y18205788D01*
X48080528Y18251972D01*
X48126712Y18308247D01*
X48178207Y18359742D01*
X48218665Y18420291D01*
X48264851Y18476569D01*
X48299170Y18540776D01*
X48339628Y18601325D01*
X48367497Y18668606D01*
X48401815Y18732811D01*
X48422947Y18802474D01*
X48450817Y18869758D01*
X48465025Y18941187D01*
X48486157Y19010850D01*
X48493293Y19083300D01*
X48507500Y19154725D01*
X48507500Y19227549D01*
X48514636Y19300000D01*
X48507500Y19372452D01*
X48507500Y19445275D01*
X48493293Y19516700D01*
X48486157Y19589150D01*
X48465025Y19658813D01*
X48450817Y19730242D01*
X48422947Y19797526D01*
X48401815Y19867189D01*
X48367497Y19931394D01*
X48339628Y19998675D01*
X48299170Y20059224D01*
X48264851Y20123431D01*
X48218665Y20179709D01*
X48178207Y20240258D01*
X48126712Y20291753D01*
X48080528Y20348028D01*
X48024253Y20394212D01*
X47972758Y20445707D01*
X47912209Y20486165D01*
X47855931Y20532351D01*
X47791724Y20566670D01*
X47731175Y20607128D01*
X47663894Y20634997D01*
X47599689Y20669315D01*
X47530026Y20690447D01*
X47462742Y20718317D01*
X47391313Y20732525D01*
X47321650Y20753657D01*
X47249201Y20760793D01*
X47177775Y20775000D01*
X42147548Y20775000D01*
X41930850Y20753657D01*
X41652811Y20669315D01*
X41574552Y20627484D01*
X41570874Y20664824D01*
X41570874Y20664829D01*
X41550555Y20871135D01*
X41549531Y20881529D01*
X41494794Y21061972D01*
X41465189Y21159566D01*
X41328225Y21415808D01*
X41259254Y21499849D01*
X41190087Y21584130D01*
X41190085Y21584132D01*
X41143902Y21640406D01*
X41087627Y21686590D01*
X40494229Y22279988D01*
X40448047Y22336260D01*
X40391776Y22382441D01*
X40132694Y22641523D01*
X39188343Y23585873D01*
X39188339Y23585878D01*
X37542458Y25231758D01*
X37496270Y25288038D01*
X37271673Y25472361D01*
X37015431Y25609325D01*
X36737392Y25693667D01*
X36520694Y25715010D01*
X36520687Y25715010D01*
X36448242Y25722145D01*
X36375797Y25715010D01*
X31421369Y25715010D01*
X31357189Y25749315D01*
X31079150Y25833657D01*
X30862452Y25855000D01*
X29447548Y25855000D01*
X29230850Y25833657D01*
X28952811Y25749315D01*
X28696569Y25612351D01*
X28471972Y25428028D01*
X28287649Y25203431D01*
X28150685Y24947189D01*
X28066343Y24669150D01*
X28037864Y24380000D01*
X28066343Y24090850D01*
X28150685Y23812811D01*
X28287649Y23556569D01*
X28302487Y23538489D01*
X28367649Y23416579D01*
X28551972Y23191982D01*
X28697279Y23072731D01*
X28696569Y23072351D01*
X28471972Y22888028D01*
X28287649Y22663431D01*
X28150685Y22407189D01*
X28066343Y22129150D01*
X28037864Y21840000D01*
X28066343Y21550850D01*
X28150685Y21272811D01*
X28287649Y21016569D01*
X28471972Y20791972D01*
X28696569Y20607649D01*
X28810549Y20546726D01*
X28596569Y20432351D01*
X28371972Y20248028D01*
X28187649Y20023431D01*
X28050685Y19767189D01*
X27966343Y19489150D01*
X27937864Y19200000D01*
X27966343Y18910850D01*
X28050685Y18632811D01*
X28187649Y18376569D01*
X28371972Y18151972D01*
X28596569Y17967649D01*
X28852811Y17830685D01*
X29130850Y17746343D01*
X29347548Y17725000D01*
X31825001Y17725000D01*
X31825001Y16966814D01*
X29690000Y16966814D01*
X29616487Y16959574D01*
X29545800Y16938131D01*
X29520000Y16924341D01*
X29494200Y16938131D01*
X29423513Y16959574D01*
X29350000Y16966814D01*
X28455565Y16966814D01*
X28372452Y16975000D01*
X25627548Y16975000D01*
X25410850Y16953657D01*
X25132811Y16869315D01*
X24876569Y16732351D01*
X24651972Y16548028D01*
X24576790Y16456419D01*
X24558550Y16441450D01*
X24392972Y16239692D01*
X24269937Y16009509D01*
X24194172Y15759745D01*
X24168589Y15500000D01*
X24194172Y15240255D01*
X24269937Y14990491D01*
X24392972Y14760308D01*
X24558550Y14558550D01*
X24576790Y14543581D01*
X24651972Y14451972D01*
X24876569Y14267649D01*
X25132811Y14130685D01*
X25410850Y14046343D01*
X25627548Y14025000D01*
X26773186Y14025000D01*
X26773186Y13294990D01*
X25430955Y13294990D01*
X25410248Y13315697D01*
X25168665Y13477118D01*
X24900232Y13588307D01*
X24615265Y13644990D01*
X24324715Y13644990D01*
X24039748Y13588307D01*
X23771315Y13477118D01*
X23529732Y13315697D01*
X23324283Y13110248D01*
X23162862Y12868665D01*
X23051673Y12600232D01*
X22994990Y12315265D01*
X19456550Y12315265D01*
X19452000Y12361452D01*
X19452000Y16154182D01*
X19495317Y16258758D01*
X19552000Y16543725D01*
X19552000Y16834275D01*
X19495317Y17119242D01*
X19452000Y17223818D01*
X19452000Y19316548D01*
X19459136Y19389000D01*
X19430657Y19678150D01*
X19346315Y19956189D01*
X19209351Y20212431D01*
X19125995Y20314000D01*
X21949452Y20314000D01*
X22166150Y20335343D01*
X22263916Y20365000D01*
X22681681Y20365000D01*
X22754126Y20357865D01*
X22826571Y20365000D01*
X22826578Y20365000D01*
X23043276Y20386343D01*
X23321315Y20470685D01*
X23577557Y20607649D01*
X23802154Y20791972D01*
X23848342Y20848252D01*
X25779758Y22779667D01*
X25836027Y22825846D01*
X25882208Y22882117D01*
X25882213Y22882122D01*
X25965765Y22983931D01*
X26020351Y23050443D01*
X26157315Y23306685D01*
X26233117Y23556570D01*
X26241657Y23584723D01*
X26251862Y23688339D01*
X26263000Y23801422D01*
X26263000Y23801428D01*
X26270135Y23873873D01*
X26263000Y23946318D01*
X26263000Y26364000D01*
X38867364Y26364000D01*
X38874500Y26291548D01*
X38874500Y26218725D01*
X38888707Y26147300D01*
X38895843Y26074850D01*
X38916975Y26005187D01*
X38931183Y25933758D01*
X38959053Y25866474D01*
X38980185Y25796811D01*
X39014503Y25732606D01*
X39042372Y25665325D01*
X39082830Y25604776D01*
X39117149Y25540569D01*
X39163335Y25484291D01*
X39203793Y25423742D01*
X39255288Y25372247D01*
X39301472Y25315972D01*
X39357747Y25269788D01*
X39409242Y25218293D01*
X39469791Y25177835D01*
X39526069Y25131649D01*
X39590276Y25097330D01*
X39650825Y25056872D01*
X39718106Y25029003D01*
X39782311Y24994685D01*
X39851974Y24973553D01*
X39919258Y24945683D01*
X39990687Y24931475D01*
X40060350Y24910343D01*
X40132799Y24903207D01*
X40204225Y24889000D01*
X40277048Y24889000D01*
X40349500Y24881864D01*
X40421952Y24889000D01*
X40494775Y24889000D01*
X40566200Y24903207D01*
X40638650Y24910343D01*
X40708313Y24931475D01*
X40779742Y24945683D01*
X40847026Y24973553D01*
X40916689Y24994685D01*
X40980894Y25029003D01*
X41048175Y25056872D01*
X41108724Y25097330D01*
X41172931Y25131649D01*
X41229209Y25177835D01*
X41289758Y25218293D01*
X41341253Y25269788D01*
X41397528Y25315972D01*
X41443712Y25372247D01*
X41495207Y25423742D01*
X41535665Y25484291D01*
X41581851Y25540569D01*
X41616170Y25604776D01*
X41656628Y25665325D01*
X41684497Y25732606D01*
X41718815Y25796811D01*
X41739947Y25866474D01*
X41767817Y25933758D01*
X41782025Y26005187D01*
X41803157Y26074850D01*
X41810293Y26147299D01*
X41824500Y26218725D01*
X41824500Y26291548D01*
X41831636Y26364000D01*
X41824500Y26436452D01*
X41824500Y27749897D01*
X42046569Y27567649D01*
X42302811Y27430685D01*
X42580850Y27346343D01*
X42797548Y27325000D01*
X47089036Y27325000D01*
X52734084Y21679951D01*
X52775685Y21542811D01*
X52912649Y21286569D01*
X53096972Y21061972D01*
X53321569Y20877649D01*
X53577811Y20740685D01*
X53855850Y20656343D01*
X54072548Y20635000D01*
X54226020Y20635000D01*
X54400000Y20617865D01*
X54573979Y20635000D01*
X55487452Y20635000D01*
X55704150Y20656343D01*
X55982189Y20740685D01*
X56238431Y20877649D01*
X56463028Y21061972D01*
X56647351Y21286569D01*
X56784315Y21542811D01*
X56868657Y21820850D01*
X56897136Y22110000D01*
X61552864Y22110000D01*
X61581343Y21820850D01*
X61665685Y21542811D01*
X61802649Y21286569D01*
X61986972Y21061972D01*
X62211569Y20877649D01*
X62335001Y20811674D01*
X62335000Y19489775D01*
X62335000Y19199225D01*
X62335001Y19199220D01*
X62335000Y14292452D01*
X62335000Y14292451D01*
X62335001Y8748842D01*
X62283569Y8721351D01*
X62058972Y8537028D01*
X61874649Y8312431D01*
X61737685Y8056189D01*
X61653343Y7778150D01*
X61624864Y7489000D01*
X61653343Y7199850D01*
X61737685Y6921811D01*
X61874649Y6665569D01*
X62058972Y6440972D01*
X62283569Y6256649D01*
X62539811Y6119685D01*
X62817850Y6035343D01*
X63034548Y6014000D01*
X63804554Y6014000D01*
X63876999Y6006865D01*
X63949444Y6014000D01*
X64449452Y6014000D01*
X64666150Y6035343D01*
X64944189Y6119685D01*
X65200431Y6256649D01*
X65425028Y6440972D01*
X65609351Y6665569D01*
X65746315Y6921811D01*
X65830657Y7199850D01*
X65859136Y7489000D01*
X65830657Y7778150D01*
X65746315Y8056189D01*
X65609351Y8312431D01*
X65425028Y8537028D01*
X65285000Y8651947D01*
X65285000Y21006143D01*
X65353028Y21061972D01*
X65537351Y21286569D01*
X65674315Y21542811D01*
X65758657Y21820850D01*
X65787136Y22110000D01*
X65758657Y22399150D01*
X65674315Y22677189D01*
X65537351Y22933431D01*
X65353028Y23158028D01*
X65128431Y23342351D01*
X64872189Y23479315D01*
X64594150Y23563657D01*
X64377452Y23585000D01*
X64195268Y23585000D01*
X64099150Y23614157D01*
X63810000Y23642636D01*
X63520851Y23614157D01*
X63424733Y23585000D01*
X62962548Y23585000D01*
X62745850Y23563657D01*
X62467811Y23479315D01*
X62211569Y23342351D01*
X61986972Y23158028D01*
X61802649Y22933431D01*
X61665685Y22677189D01*
X61581343Y22399150D01*
X61552864Y22110000D01*
X56897136Y22110000D01*
X56868657Y22399150D01*
X56784315Y22677189D01*
X56647351Y22933431D01*
X56463028Y23158028D01*
X56238431Y23342351D01*
X55982189Y23479315D01*
X55704150Y23563657D01*
X55487452Y23585000D01*
X55000965Y23585000D01*
X48794216Y29791748D01*
X48748028Y29848028D01*
X48523431Y30032351D01*
X48267189Y30169315D01*
X47989150Y30253657D01*
X47772452Y30275000D01*
X47772445Y30275000D01*
X47700000Y30282135D01*
X47627555Y30275000D01*
X43036838Y30275000D01*
X45143839Y32382000D01*
X48051275Y32382000D01*
X48122701Y32396207D01*
X48195150Y32403343D01*
X48264813Y32424475D01*
X48336242Y32438683D01*
X48403526Y32466553D01*
X48473189Y32487685D01*
X48537394Y32522003D01*
X48604675Y32549872D01*
X48665224Y32590330D01*
X48729431Y32624649D01*
X48785709Y32670835D01*
X48846258Y32711293D01*
X48897753Y32762788D01*
X48954028Y32808972D01*
X49000213Y32865248D01*
X49051707Y32916742D01*
X49092165Y32977291D01*
X49138351Y33033569D01*
X49172670Y33097776D01*
X49213128Y33158325D01*
X49240997Y33225606D01*
X49275315Y33289811D01*
X49296447Y33359474D01*
X49324317Y33426758D01*
X49338525Y33498187D01*
X49359657Y33567850D01*
X49366793Y33640300D01*
X49381000Y33711725D01*
X49381000Y33784548D01*
X49388136Y33857000D01*
X56148990Y33857000D01*
X56156126Y33784548D01*
X56156126Y33711725D01*
X56170333Y33640300D01*
X56177469Y33567850D01*
X56198601Y33498187D01*
X56212809Y33426758D01*
X56240679Y33359474D01*
X56261811Y33289811D01*
X56296129Y33225606D01*
X56323998Y33158325D01*
X56364456Y33097776D01*
X56398775Y33033569D01*
X56444961Y32977291D01*
X56485419Y32916742D01*
X56536913Y32865248D01*
X56583098Y32808972D01*
X56639373Y32762788D01*
X56690868Y32711293D01*
X56751417Y32670835D01*
X56807695Y32624649D01*
X56871902Y32590330D01*
X56932451Y32549872D01*
X56999732Y32522003D01*
X57063937Y32487685D01*
X57133600Y32466553D01*
X57200884Y32438683D01*
X57272313Y32424475D01*
X57341976Y32403343D01*
X57414425Y32396207D01*
X57485851Y32382000D01*
X57558681Y32382000D01*
X57631126Y32374865D01*
X57703571Y32382000D01*
X57776401Y32382000D01*
X57847827Y32396207D01*
X57920276Y32403343D01*
X57989939Y32424475D01*
X58061368Y32438683D01*
X58128652Y32466553D01*
X58198315Y32487685D01*
X58262520Y32522003D01*
X58329801Y32549872D01*
X58390350Y32590330D01*
X58454557Y32624649D01*
X58510835Y32670835D01*
X58571384Y32711293D01*
X58622879Y32762788D01*
X58679154Y32808972D01*
X58725339Y32865248D01*
X58776833Y32916742D01*
X58776835Y32916745D01*
X64801753Y38941662D01*
X64858028Y38987846D01*
X65042351Y39212443D01*
X65179315Y39468685D01*
X65238203Y39662812D01*
X65263657Y39746723D01*
X65279030Y39902809D01*
X65285000Y39963422D01*
X65285000Y39963428D01*
X65292135Y40035873D01*
X65285000Y40108318D01*
X65285000Y42232452D01*
X65263657Y42449150D01*
X65179315Y42727189D01*
X65042351Y42983431D01*
X64946743Y43099929D01*
X64858028Y43208028D01*
X64633431Y43392351D01*
X64377189Y43529315D01*
X64099150Y43613657D01*
X63810000Y43642136D01*
X63520850Y43613657D01*
X63242811Y43529315D01*
X62986569Y43392351D01*
X62761972Y43208027D01*
X62577649Y42983430D01*
X62564775Y42959344D01*
X62440685Y42727189D01*
X62356343Y42449150D01*
X62335000Y42232452D01*
X62335000Y40817549D01*
X62335001Y40817543D01*
X62335001Y40646840D01*
X56690871Y35002709D01*
X56690868Y35002707D01*
X56639374Y34951213D01*
X56583098Y34905028D01*
X56536914Y34848753D01*
X56485419Y34797258D01*
X56444961Y34736709D01*
X56398775Y34680431D01*
X56364456Y34616224D01*
X56323998Y34555675D01*
X56296129Y34488394D01*
X56261811Y34424189D01*
X56240679Y34354526D01*
X56212809Y34287242D01*
X56198601Y34215813D01*
X56177469Y34146150D01*
X56170333Y34073700D01*
X56156126Y34002275D01*
X56156126Y33929452D01*
X56148990Y33857000D01*
X49388136Y33857000D01*
X49381000Y33929452D01*
X49381000Y34002275D01*
X49366793Y34073700D01*
X49359657Y34146150D01*
X49338525Y34215813D01*
X49324317Y34287242D01*
X49296447Y34354526D01*
X49275315Y34424189D01*
X49240997Y34488394D01*
X49213128Y34555675D01*
X49172670Y34616224D01*
X49138351Y34680431D01*
X49092165Y34736709D01*
X49051707Y34797258D01*
X49000212Y34848753D01*
X48954028Y34905028D01*
X48897752Y34951213D01*
X48846258Y35002707D01*
X48785709Y35043165D01*
X48729431Y35089351D01*
X48665224Y35123670D01*
X48604675Y35164128D01*
X48537394Y35191997D01*
X48473189Y35226315D01*
X48403526Y35247447D01*
X48336242Y35275317D01*
X48264813Y35289525D01*
X48195150Y35310657D01*
X48122701Y35317793D01*
X48051275Y35332000D01*
X44605318Y35332000D01*
X44532873Y35339135D01*
X44460428Y35332000D01*
X44460422Y35332000D01*
X44274153Y35313654D01*
X44243723Y35310657D01*
X44232713Y35307317D01*
X43965685Y35226315D01*
X43709443Y35089351D01*
X43484846Y34905028D01*
X43438662Y34848753D01*
X39357748Y30767838D01*
X39301472Y30721653D01*
X39117149Y30497056D01*
X39039281Y30351375D01*
X38980185Y30240814D01*
X38896049Y29963453D01*
X38895843Y29962775D01*
X38874500Y29746077D01*
X38874500Y29746071D01*
X38867365Y29673626D01*
X38874500Y29601181D01*
X38874501Y26509280D01*
X38874500Y26509275D01*
X38874500Y26436452D01*
X38867364Y26364000D01*
X26263000Y26364000D01*
X26263000Y27325000D01*
X30242452Y27325000D01*
X30459150Y27346343D01*
X30737189Y27430685D01*
X30993431Y27567649D01*
X31218028Y27751972D01*
X31402351Y27976569D01*
X31539315Y28232811D01*
X31623657Y28510850D01*
X31652136Y28800000D01*
X31623657Y29089150D01*
X31539315Y29367189D01*
X31402351Y29623431D01*
X31218028Y29848028D01*
X30993431Y30032351D01*
X30737189Y30169315D01*
X30459150Y30253657D01*
X30242452Y30275000D01*
X27541000Y30275000D01*
X27541000Y31350452D01*
X27519657Y31567150D01*
X27435315Y31845189D01*
X27298351Y32101431D01*
X27114028Y32326028D01*
X26889431Y32510351D01*
X26873381Y32518930D01*
X26870431Y32521351D01*
X26614189Y32658315D01*
X26336150Y32742657D01*
X26119452Y32764000D01*
X24704548Y32764000D01*
X24487850Y32742657D01*
X24209811Y32658315D01*
X23953569Y32521351D01*
X23728972Y32337028D01*
X23544649Y32112431D01*
X23407685Y31856189D01*
X23323343Y31578150D01*
X23294864Y31289000D01*
X23323343Y30999850D01*
X23407685Y30721811D01*
X23544649Y30465569D01*
X23728972Y30240972D01*
X23953569Y30056649D01*
X23981798Y30041560D01*
X23964569Y30032351D01*
X23908291Y29986165D01*
X23847742Y29945707D01*
X23796248Y29894213D01*
X23739972Y29848028D01*
X23693788Y29791753D01*
X23642293Y29740258D01*
X23601835Y29679709D01*
X23555649Y29623431D01*
X23521330Y29559224D01*
X23480872Y29498675D01*
X23453003Y29431394D01*
X23418685Y29367189D01*
X23397553Y29297526D01*
X23369683Y29230242D01*
X23355475Y29158813D01*
X23334343Y29089150D01*
X23327207Y29016700D01*
X23313000Y28945275D01*
X23313000Y28872452D01*
X23305864Y28800000D01*
X23313000Y28727549D01*
X23313000Y28654725D01*
X23313001Y28654720D01*
X23313000Y24803178D01*
X23269315Y24947189D01*
X23132351Y25203431D01*
X22948028Y25428028D01*
X22723431Y25612351D01*
X22467189Y25749315D01*
X22231004Y25820961D01*
X22052010Y25999954D01*
X22052010Y31190671D01*
X22059145Y31263116D01*
X22052010Y31335561D01*
X22052010Y31335568D01*
X22030667Y31552266D01*
X21946325Y31830305D01*
X21809361Y32086547D01*
X21625038Y32311144D01*
X21568763Y32357328D01*
X19045342Y34880748D01*
X18999154Y34937028D01*
X18774557Y35121351D01*
X18518315Y35258315D01*
X18240276Y35342657D01*
X18023578Y35364000D01*
X18023571Y35364000D01*
X17951126Y35371135D01*
X17878681Y35364000D01*
X12220510Y35364000D01*
X12220510Y39016214D01*
X12242145Y39235883D01*
X12213667Y39525034D01*
X12207152Y39546512D01*
X12269315Y39662811D01*
X12353657Y39940850D01*
X12375000Y40157548D01*
X12375000Y41572452D01*
X12353657Y41789150D01*
X12269315Y42067189D01*
X12180981Y42232452D01*
X26775000Y42232452D01*
X26775000Y40817549D01*
X26796343Y40600851D01*
X26880685Y40322812D01*
X27017649Y40066570D01*
X27201972Y39841973D01*
X27426569Y39657649D01*
X27682811Y39520685D01*
X27960850Y39436343D01*
X28250000Y39407864D01*
X28539149Y39436343D01*
X28817188Y39520685D01*
X29073430Y39657649D01*
X29298027Y39841972D01*
X29482351Y40066569D01*
X29520000Y40137006D01*
X29557649Y40066570D01*
X29741972Y39841973D01*
X29966569Y39657649D01*
X30222811Y39520685D01*
X30500850Y39436343D01*
X30790000Y39407864D01*
X31079149Y39436343D01*
X31357188Y39520685D01*
X31613430Y39657649D01*
X31838027Y39841972D01*
X32022351Y40066569D01*
X32060000Y40137006D01*
X32097649Y40066570D01*
X32281972Y39841973D01*
X32506569Y39657649D01*
X32762811Y39520685D01*
X33040850Y39436343D01*
X33330000Y39407864D01*
X33619149Y39436343D01*
X33897188Y39520685D01*
X34153430Y39657649D01*
X34378027Y39841972D01*
X34562351Y40066569D01*
X34600000Y40137006D01*
X34637649Y40066570D01*
X34821972Y39841973D01*
X35046569Y39657649D01*
X35302811Y39520685D01*
X35580850Y39436343D01*
X35870000Y39407864D01*
X36159149Y39436343D01*
X36437188Y39520685D01*
X36693430Y39657649D01*
X36918027Y39841972D01*
X37102351Y40066569D01*
X37140000Y40137006D01*
X37177649Y40066570D01*
X37361972Y39841973D01*
X37586569Y39657649D01*
X37842811Y39520685D01*
X38120850Y39436343D01*
X38410000Y39407864D01*
X38699149Y39436343D01*
X38977188Y39520685D01*
X39233430Y39657649D01*
X39458027Y39841972D01*
X39642351Y40066569D01*
X39680000Y40137006D01*
X39717649Y40066570D01*
X39901972Y39841973D01*
X40126569Y39657649D01*
X40382811Y39520685D01*
X40660850Y39436343D01*
X40950000Y39407864D01*
X41239149Y39436343D01*
X41517188Y39520685D01*
X41773430Y39657649D01*
X41998027Y39841972D01*
X42182351Y40066569D01*
X42220000Y40137006D01*
X42257649Y40066570D01*
X42441972Y39841973D01*
X42666569Y39657649D01*
X42922811Y39520685D01*
X43200850Y39436343D01*
X43490000Y39407864D01*
X43779149Y39436343D01*
X44057188Y39520685D01*
X44313430Y39657649D01*
X44538027Y39841972D01*
X44722351Y40066569D01*
X44760000Y40137006D01*
X44797649Y40066570D01*
X44981972Y39841973D01*
X45206569Y39657649D01*
X45462811Y39520685D01*
X45740850Y39436343D01*
X46030000Y39407864D01*
X46319149Y39436343D01*
X46597188Y39520685D01*
X46853430Y39657649D01*
X47078027Y39841972D01*
X47262351Y40066569D01*
X47300000Y40137006D01*
X47337649Y40066570D01*
X47521972Y39841973D01*
X47746569Y39657649D01*
X48002811Y39520685D01*
X48280850Y39436343D01*
X48570000Y39407864D01*
X48859149Y39436343D01*
X49137188Y39520685D01*
X49393430Y39657649D01*
X49618027Y39841972D01*
X49802351Y40066569D01*
X49840000Y40137006D01*
X49877649Y40066570D01*
X50061972Y39841973D01*
X50286569Y39657649D01*
X50542811Y39520685D01*
X50820850Y39436343D01*
X51110000Y39407864D01*
X51399149Y39436343D01*
X51677188Y39520685D01*
X51933430Y39657649D01*
X52158027Y39841972D01*
X52342351Y40066569D01*
X52380000Y40137006D01*
X52417649Y40066570D01*
X52601972Y39841973D01*
X52826569Y39657649D01*
X53082811Y39520685D01*
X53360850Y39436343D01*
X53650000Y39407864D01*
X53939149Y39436343D01*
X54217188Y39520685D01*
X54473430Y39657649D01*
X54698027Y39841972D01*
X54882351Y40066569D01*
X54920000Y40137006D01*
X54957649Y40066570D01*
X55141972Y39841973D01*
X55366569Y39657649D01*
X55622811Y39520685D01*
X55900850Y39436343D01*
X56190000Y39407864D01*
X56479149Y39436343D01*
X56757188Y39520685D01*
X57013430Y39657649D01*
X57238027Y39841972D01*
X57422351Y40066569D01*
X57460000Y40137006D01*
X57497649Y40066570D01*
X57681972Y39841973D01*
X57906569Y39657649D01*
X58162811Y39520685D01*
X58440850Y39436343D01*
X58730000Y39407864D01*
X59019149Y39436343D01*
X59297188Y39520685D01*
X59553430Y39657649D01*
X59778027Y39841972D01*
X59962351Y40066569D01*
X60099315Y40322811D01*
X60183657Y40600850D01*
X60205000Y40817548D01*
X60205000Y42232452D01*
X60183657Y42449150D01*
X60099315Y42727189D01*
X59962351Y42983431D01*
X59778028Y43208028D01*
X59553431Y43392351D01*
X59297189Y43529315D01*
X59019150Y43613657D01*
X58730000Y43642136D01*
X58440851Y43613657D01*
X58162812Y43529315D01*
X57906570Y43392351D01*
X57681973Y43208028D01*
X57497650Y42983431D01*
X57460000Y42912994D01*
X57422351Y42983431D01*
X57238028Y43208028D01*
X57013431Y43392351D01*
X56757189Y43529315D01*
X56479150Y43613657D01*
X56190000Y43642136D01*
X55900851Y43613657D01*
X55622812Y43529315D01*
X55366570Y43392351D01*
X55141973Y43208028D01*
X54957650Y42983431D01*
X54920000Y42912994D01*
X54882351Y42983431D01*
X54698028Y43208028D01*
X54473431Y43392351D01*
X54217189Y43529315D01*
X53939150Y43613657D01*
X53650000Y43642136D01*
X53360851Y43613657D01*
X53082812Y43529315D01*
X52826570Y43392351D01*
X52601973Y43208028D01*
X52417650Y42983431D01*
X52380000Y42912994D01*
X52342351Y42983431D01*
X52158028Y43208028D01*
X51933431Y43392351D01*
X51677189Y43529315D01*
X51399150Y43613657D01*
X51110000Y43642136D01*
X50820851Y43613657D01*
X50542812Y43529315D01*
X50286570Y43392351D01*
X50061973Y43208028D01*
X49877650Y42983431D01*
X49840000Y42912994D01*
X49802351Y42983431D01*
X49618028Y43208028D01*
X49393431Y43392351D01*
X49137189Y43529315D01*
X48859150Y43613657D01*
X48570000Y43642136D01*
X48280851Y43613657D01*
X48002812Y43529315D01*
X47746570Y43392351D01*
X47521973Y43208028D01*
X47337650Y42983431D01*
X47300000Y42912994D01*
X47262351Y42983431D01*
X47078028Y43208028D01*
X46853431Y43392351D01*
X46597189Y43529315D01*
X46319150Y43613657D01*
X46030000Y43642136D01*
X45740851Y43613657D01*
X45462812Y43529315D01*
X45206570Y43392351D01*
X44981973Y43208028D01*
X44797650Y42983431D01*
X44760000Y42912994D01*
X44722351Y42983431D01*
X44538028Y43208028D01*
X44313431Y43392351D01*
X44057189Y43529315D01*
X43779150Y43613657D01*
X43490000Y43642136D01*
X43200851Y43613657D01*
X42922812Y43529315D01*
X42666570Y43392351D01*
X42441973Y43208028D01*
X42257650Y42983431D01*
X42220000Y42912994D01*
X42182351Y42983431D01*
X41998028Y43208028D01*
X41773431Y43392351D01*
X41517189Y43529315D01*
X41239150Y43613657D01*
X40950000Y43642136D01*
X40660851Y43613657D01*
X40382812Y43529315D01*
X40126570Y43392351D01*
X39901973Y43208028D01*
X39717650Y42983431D01*
X39680000Y42912994D01*
X39642351Y42983431D01*
X39458028Y43208028D01*
X39233431Y43392351D01*
X38977189Y43529315D01*
X38699150Y43613657D01*
X38410000Y43642136D01*
X38120851Y43613657D01*
X37842812Y43529315D01*
X37586570Y43392351D01*
X37361973Y43208028D01*
X37177650Y42983431D01*
X37140000Y42912994D01*
X37102351Y42983431D01*
X36918028Y43208028D01*
X36693431Y43392351D01*
X36437189Y43529315D01*
X36159150Y43613657D01*
X35870000Y43642136D01*
X35580851Y43613657D01*
X35302812Y43529315D01*
X35046570Y43392351D01*
X34821973Y43208028D01*
X34637650Y42983431D01*
X34600000Y42912994D01*
X34562351Y42983431D01*
X34378028Y43208028D01*
X34153431Y43392351D01*
X33897189Y43529315D01*
X33619150Y43613657D01*
X33330000Y43642136D01*
X33040851Y43613657D01*
X32762812Y43529315D01*
X32506570Y43392351D01*
X32281973Y43208028D01*
X32097650Y42983431D01*
X32060000Y42912994D01*
X32022351Y42983431D01*
X31838028Y43208028D01*
X31613431Y43392351D01*
X31357189Y43529315D01*
X31079150Y43613657D01*
X30790000Y43642136D01*
X30500851Y43613657D01*
X30222812Y43529315D01*
X29966570Y43392351D01*
X29741973Y43208028D01*
X29557650Y42983431D01*
X29520000Y42912994D01*
X29482351Y42983431D01*
X29298028Y43208028D01*
X29073431Y43392351D01*
X28817189Y43529315D01*
X28539150Y43613657D01*
X28250000Y43642136D01*
X27960851Y43613657D01*
X27682812Y43529315D01*
X27426570Y43392351D01*
X27201973Y43208028D01*
X27017650Y42983431D01*
X26880685Y42727189D01*
X26796343Y42449150D01*
X26775000Y42232452D01*
X12180981Y42232452D01*
X12132351Y42323431D01*
X11948028Y42548028D01*
X11723431Y42732351D01*
X11467189Y42869315D01*
X11189150Y42953657D01*
X10900000Y42982136D01*
X10610851Y42953657D01*
X10332812Y42869315D01*
X10076570Y42732351D01*
X9851973Y42548028D01*
X9667650Y42323431D01*
X9630000Y42252994D01*
X9592351Y42323431D01*
X9408028Y42548028D01*
X9183431Y42732351D01*
X8927189Y42869315D01*
X8649150Y42953657D01*
X8360000Y42982136D01*
X8070851Y42953657D01*
X7792812Y42869315D01*
X7536570Y42732351D01*
X7311973Y42548028D01*
X7127650Y42323431D01*
X6990685Y42067189D01*
X6906343Y41789150D01*
X6902959Y41754791D01*
X6891844Y41718150D01*
X6870501Y41501452D01*
X6870500Y33129953D01*
X6863364Y33057500D01*
X6870500Y32985049D01*
X6870501Y24678844D01*
X5285248Y23093590D01*
X5228972Y23047405D01*
X5044649Y22822808D01*
X4926571Y22601899D01*
X4907685Y22566566D01*
X4828333Y22304976D01*
X4823343Y22288527D01*
X4802000Y22071829D01*
X4802000Y22071823D01*
X4794865Y21999378D01*
X4802000Y21926933D01*
X4802001Y19925776D01*
X4770685Y19867189D01*
X4686343Y19589150D01*
X4657864Y19300000D01*
X425000Y19300000D01*
X425000Y46694521D01*
X1025000Y46694521D01*
X1025000Y46305479D01*
X1100898Y45923914D01*
X1249778Y45564487D01*
X1465917Y45241011D01*
X1741011Y44965917D01*
X2064487Y44749778D01*
X2423914Y44600898D01*
X2805479Y44525000D01*
X3194521Y44525000D01*
X3576086Y44600898D01*
X3935513Y44749778D01*
X4258989Y44965917D01*
X4534083Y45241011D01*
X4750222Y45564487D01*
X4899102Y45923914D01*
X4975000Y46305479D01*
X4975000Y46694521D01*
X70525000Y46694521D01*
X70525000Y46305479D01*
X70600898Y45923914D01*
X70749778Y45564487D01*
X70965917Y45241011D01*
X71241011Y44965917D01*
X71564487Y44749778D01*
X71923914Y44600898D01*
X72305479Y44525000D01*
X72694521Y44525000D01*
X73076086Y44600898D01*
X73435513Y44749778D01*
X73758989Y44965917D01*
X74034083Y45241011D01*
X74250222Y45564487D01*
X74399102Y45923914D01*
X74475000Y46305479D01*
X74475000Y46694521D01*
X74399102Y47076086D01*
X74250222Y47435513D01*
X74034083Y47758989D01*
X73758989Y48034083D01*
X73435513Y48250222D01*
X73076086Y48399102D01*
X72694521Y48475000D01*
X72305479Y48475000D01*
X71923914Y48399102D01*
X71564487Y48250222D01*
X71241011Y48034083D01*
X70965917Y47758989D01*
X70749778Y47435513D01*
X70600898Y47076086D01*
X70525000Y46694521D01*
X4975000Y46694521D01*
X4899102Y47076086D01*
X4750222Y47435513D01*
X4534083Y47758989D01*
X4258989Y48034083D01*
X3935513Y48250222D01*
X3576086Y48399102D01*
X3194521Y48475000D01*
X2805479Y48475000D01*
X2423914Y48399102D01*
X2064487Y48250222D01*
X1741011Y48034083D01*
X1465917Y47758989D01*
X1249778Y47435513D01*
X1100898Y47076086D01*
X1025000Y46694521D01*
X425000Y46694521D01*
X425000Y49075057D01*
X75075000Y49084944D01*
X75075001Y425000D01*
G37*
X75075001Y425000D02*
X13425000Y425000D01*
X13425000Y3194521D01*
X14025000Y3194521D01*
X14025000Y2805479D01*
X14100898Y2423914D01*
X14249778Y2064487D01*
X14465917Y1741011D01*
X14741011Y1465917D01*
X15064487Y1249778D01*
X15423914Y1100898D01*
X15805479Y1025000D01*
X16194521Y1025000D01*
X16576086Y1100898D01*
X16935513Y1249778D01*
X17258989Y1465917D01*
X17534083Y1741011D01*
X17750222Y2064487D01*
X17899102Y2423914D01*
X17975000Y2805479D01*
X17975000Y3194521D01*
X70525000Y3194521D01*
X70525000Y2805479D01*
X70600898Y2423914D01*
X70749778Y2064487D01*
X70965917Y1741011D01*
X71241011Y1465917D01*
X71564487Y1249778D01*
X71923914Y1100898D01*
X72305479Y1025000D01*
X72694521Y1025000D01*
X73076086Y1100898D01*
X73435513Y1249778D01*
X73758989Y1465917D01*
X74034083Y1741011D01*
X74250222Y2064487D01*
X74399102Y2423914D01*
X74475000Y2805479D01*
X74475000Y3194521D01*
X74399102Y3576086D01*
X74250222Y3935513D01*
X74034083Y4258989D01*
X73758989Y4534083D01*
X73435513Y4750222D01*
X73076086Y4899102D01*
X72694521Y4975000D01*
X72305479Y4975000D01*
X71923914Y4899102D01*
X71564487Y4750222D01*
X71241011Y4534083D01*
X70965917Y4258989D01*
X70749778Y3935513D01*
X70600898Y3576086D01*
X70525000Y3194521D01*
X17975000Y3194521D01*
X17899102Y3576086D01*
X17750222Y3935513D01*
X17534083Y4258989D01*
X17258989Y4534083D01*
X16935513Y4750222D01*
X16576086Y4899102D01*
X16194521Y4975000D01*
X15805479Y4975000D01*
X15423914Y4899102D01*
X15064487Y4750222D01*
X14741011Y4534083D01*
X14465917Y4258989D01*
X14249778Y3935513D01*
X14100898Y3576086D01*
X14025000Y3194521D01*
X13425000Y3194521D01*
X13425000Y12979127D01*
X13427056Y13000000D01*
X13418850Y13083314D01*
X13394548Y13163427D01*
X13355084Y13237260D01*
X13301974Y13301974D01*
X13237260Y13355084D01*
X13163427Y13394548D01*
X13083314Y13418850D01*
X13020874Y13425000D01*
X13000000Y13427056D01*
X12979126Y13425000D01*
X425000Y13425000D01*
X425000Y19300000D01*
X4657864Y19300000D01*
X4665000Y19227549D01*
X4665000Y17957548D01*
X4686343Y17740850D01*
X4770685Y17462811D01*
X4907650Y17206569D01*
X5091973Y16981972D01*
X5316570Y16797649D01*
X5572812Y16660685D01*
X5850851Y16576343D01*
X6140000Y16547864D01*
X6429150Y16576343D01*
X6707189Y16660685D01*
X6963431Y16797649D01*
X7188028Y16981972D01*
X7305084Y17124604D01*
X7325028Y17140972D01*
X7420519Y17257327D01*
X7447650Y17206569D01*
X7631973Y16981972D01*
X7856570Y16797649D01*
X8112812Y16660685D01*
X8390851Y16576343D01*
X8680000Y16547864D01*
X8969150Y16576343D01*
X9247189Y16660685D01*
X9503431Y16797649D01*
X9728028Y16981972D01*
X9912351Y17206569D01*
X9950000Y17277006D01*
X9987650Y17206569D01*
X10171973Y16981972D01*
X10396570Y16797649D01*
X10652812Y16660685D01*
X10930851Y16576343D01*
X11220000Y16547864D01*
X11509150Y16576343D01*
X11787189Y16660685D01*
X12043431Y16797649D01*
X12064910Y16815276D01*
X12089930Y16828650D01*
X12314528Y17012972D01*
X12498850Y17237570D01*
X12504965Y17249010D01*
X12527650Y17206569D01*
X12711973Y16981972D01*
X12936570Y16797649D01*
X13192812Y16660685D01*
X13470851Y16576343D01*
X13760000Y16547864D01*
X14049150Y16576343D01*
X14327189Y16660685D01*
X14583431Y16797649D01*
X14808028Y16981972D01*
X14992351Y17206569D01*
X15129315Y17462811D01*
X15213657Y17740850D01*
X15221945Y17825000D01*
X16502000Y17825000D01*
X16502001Y12434280D01*
X16502000Y12434275D01*
X16502000Y12361452D01*
X16494864Y12289000D01*
X16502000Y12216548D01*
X16502000Y12143725D01*
X16516207Y12072300D01*
X16523343Y11999850D01*
X16544475Y11930187D01*
X16558683Y11858758D01*
X16586553Y11791474D01*
X16607685Y11721811D01*
X16642003Y11657606D01*
X16669872Y11590325D01*
X16710330Y11529776D01*
X16744649Y11465569D01*
X16790835Y11409291D01*
X16831293Y11348742D01*
X16882788Y11297247D01*
X16928972Y11240972D01*
X16985247Y11194788D01*
X17036742Y11143293D01*
X17097291Y11102835D01*
X17153569Y11056649D01*
X17217776Y11022330D01*
X17278325Y10981872D01*
X17345606Y10954003D01*
X17409811Y10919685D01*
X17479474Y10898553D01*
X17546758Y10870683D01*
X17618187Y10856475D01*
X17687850Y10835343D01*
X17760299Y10828207D01*
X17831725Y10814000D01*
X17904548Y10814000D01*
X17977000Y10806864D01*
X18049452Y10814000D01*
X18122275Y10814000D01*
X18193701Y10828207D01*
X18266150Y10835343D01*
X18335813Y10856475D01*
X18407242Y10870683D01*
X18474526Y10898553D01*
X18544189Y10919685D01*
X18608394Y10954003D01*
X18675675Y10981872D01*
X18736224Y11022330D01*
X18800431Y11056649D01*
X18856709Y11102835D01*
X18917258Y11143293D01*
X18968753Y11194788D01*
X19025028Y11240972D01*
X19071212Y11297247D01*
X19122707Y11348742D01*
X19163165Y11409291D01*
X19209351Y11465569D01*
X19243670Y11529776D01*
X19284128Y11590325D01*
X19311997Y11657606D01*
X19346315Y11721811D01*
X19367447Y11791474D01*
X19395317Y11858758D01*
X19409525Y11930187D01*
X19430657Y11999850D01*
X19437793Y12072300D01*
X19452000Y12143725D01*
X19452000Y12216548D01*
X19459136Y12289000D01*
X19456550Y12315265D01*
X22994990Y12315265D01*
X22994990Y12024715D01*
X23051673Y11739748D01*
X23162862Y11471315D01*
X23324283Y11229732D01*
X23529732Y11024283D01*
X23771315Y10862862D01*
X24039748Y10751673D01*
X24324715Y10694990D01*
X24615265Y10694990D01*
X24900232Y10751673D01*
X25168665Y10862862D01*
X25410248Y11024283D01*
X25430955Y11044990D01*
X33142000Y11044990D01*
X32040511Y9943500D01*
X31079548Y9943500D01*
X30862850Y9922157D01*
X30584811Y9837815D01*
X30328569Y9700851D01*
X30197762Y9593500D01*
X28146238Y9593500D01*
X28015431Y9700851D01*
X27759189Y9837815D01*
X27481150Y9922157D01*
X27264452Y9943500D01*
X25849548Y9943500D01*
X25632850Y9922157D01*
X25354811Y9837815D01*
X25098569Y9700851D01*
X24873972Y9516528D01*
X24689649Y9291931D01*
X24552685Y9035689D01*
X24468343Y8757650D01*
X24439864Y8468500D01*
X24468343Y8179350D01*
X24552685Y7901311D01*
X24689649Y7645069D01*
X24873972Y7420472D01*
X25098569Y7236149D01*
X25354811Y7099185D01*
X25632850Y7014843D01*
X25849548Y6993500D01*
X27264452Y6993500D01*
X27481150Y7014843D01*
X27759189Y7099185D01*
X28015431Y7236149D01*
X28146238Y7343500D01*
X30197762Y7343500D01*
X30328569Y7236149D01*
X30584811Y7099185D01*
X30862850Y7014843D01*
X31079548Y6993500D01*
X32494452Y6993500D01*
X32711150Y7014843D01*
X32989189Y7099185D01*
X33245431Y7236149D01*
X33470028Y7420472D01*
X33654351Y7645069D01*
X33791315Y7901311D01*
X33875657Y8179350D01*
X33904136Y8468500D01*
X33890091Y8611101D01*
X34623970Y9344980D01*
X37433185Y9344980D01*
X37389649Y9291931D01*
X37252685Y9035689D01*
X37168343Y8757650D01*
X37139864Y8468500D01*
X37168343Y8179350D01*
X37252685Y7901311D01*
X37389649Y7645069D01*
X37573972Y7420472D01*
X37798569Y7236149D01*
X38054811Y7099185D01*
X38332850Y7014843D01*
X38549548Y6993500D01*
X39964452Y6993500D01*
X40181150Y7014843D01*
X40459189Y7099185D01*
X40715431Y7236149D01*
X40846238Y7343500D01*
X42897762Y7343500D01*
X43028569Y7236149D01*
X43284811Y7099185D01*
X43562850Y7014843D01*
X43779548Y6993500D01*
X45194452Y6993500D01*
X45411150Y7014843D01*
X45689189Y7099185D01*
X45945431Y7236149D01*
X46170028Y7420472D01*
X46354351Y7645069D01*
X46491315Y7901311D01*
X46575657Y8179350D01*
X46604136Y8468500D01*
X46575657Y8757650D01*
X46491315Y9035689D01*
X46354351Y9291931D01*
X46340566Y9308728D01*
X49511572Y12479733D01*
X49616928Y12608109D01*
X49690191Y12745175D01*
X49743513Y12750426D01*
X49814200Y12771869D01*
X49879347Y12806691D01*
X49936448Y12853552D01*
X49983309Y12910653D01*
X50018131Y12975800D01*
X50039574Y13046487D01*
X50046814Y13120000D01*
X50046814Y13190443D01*
X50061972Y13171973D01*
X50286569Y12987649D01*
X50542811Y12850685D01*
X50820850Y12766343D01*
X51110000Y12737864D01*
X51399149Y12766343D01*
X51677188Y12850685D01*
X51933430Y12987649D01*
X52158027Y13171972D01*
X52342351Y13396569D01*
X52380000Y13467006D01*
X52417649Y13396570D01*
X52601972Y13171973D01*
X52826569Y12987649D01*
X53082811Y12850685D01*
X53360850Y12766343D01*
X53650000Y12737864D01*
X53939149Y12766343D01*
X54217188Y12850685D01*
X54473430Y12987649D01*
X54698027Y13171972D01*
X54882351Y13396569D01*
X54920000Y13467006D01*
X54957649Y13396570D01*
X55141972Y13171973D01*
X55366569Y12987649D01*
X55622811Y12850685D01*
X55900850Y12766343D01*
X56190000Y12737864D01*
X56479149Y12766343D01*
X56757188Y12850685D01*
X57013430Y12987649D01*
X57238027Y13171972D01*
X57422351Y13396569D01*
X57460000Y13467006D01*
X57497649Y13396570D01*
X57605000Y13265763D01*
X57605001Y10007991D01*
X57540510Y9943500D01*
X56479548Y9943500D01*
X56262850Y9922157D01*
X55984811Y9837815D01*
X55728569Y9700851D01*
X55597762Y9593500D01*
X53546238Y9593500D01*
X53415431Y9700851D01*
X53159189Y9837815D01*
X52881150Y9922157D01*
X52664452Y9943500D01*
X51249548Y9943500D01*
X51032850Y9922157D01*
X50754811Y9837815D01*
X50498569Y9700851D01*
X50273972Y9516528D01*
X50089649Y9291931D01*
X49952685Y9035689D01*
X49868343Y8757650D01*
X49839864Y8468500D01*
X49868343Y8179350D01*
X49952685Y7901311D01*
X50089649Y7645069D01*
X50273972Y7420472D01*
X50498569Y7236149D01*
X50754811Y7099185D01*
X51032850Y7014843D01*
X51249548Y6993500D01*
X52664452Y6993500D01*
X52881150Y7014843D01*
X53159189Y7099185D01*
X53415431Y7236149D01*
X53546238Y7343500D01*
X55597762Y7343500D01*
X55728569Y7236149D01*
X55984811Y7099185D01*
X56262850Y7014843D01*
X56479548Y6993500D01*
X57894452Y6993500D01*
X58111150Y7014843D01*
X58389189Y7099185D01*
X58645431Y7236149D01*
X58870028Y7420472D01*
X59054351Y7645069D01*
X59191315Y7901311D01*
X59275657Y8179350D01*
X59304136Y8468500D01*
X59299057Y8520067D01*
X59486416Y8707426D01*
X59529344Y8742656D01*
X59669929Y8913960D01*
X59774393Y9109398D01*
X59838722Y9321462D01*
X59855000Y9486736D01*
X59855000Y9486738D01*
X59860443Y9542000D01*
X59855000Y9597261D01*
X59855000Y13265763D01*
X59962351Y13396569D01*
X60099315Y13652811D01*
X60183657Y13930850D01*
X60205000Y14147548D01*
X60205000Y15562452D01*
X60183657Y15779150D01*
X60099315Y16057189D01*
X59962351Y16313431D01*
X59778028Y16538028D01*
X59553431Y16722351D01*
X59297189Y16859315D01*
X59019150Y16943657D01*
X58730000Y16972136D01*
X58440851Y16943657D01*
X58162812Y16859315D01*
X57906570Y16722351D01*
X57681973Y16538028D01*
X57497650Y16313431D01*
X57460000Y16242994D01*
X57422351Y16313431D01*
X57238028Y16538028D01*
X57013431Y16722351D01*
X56757189Y16859315D01*
X56479150Y16943657D01*
X56190000Y16972136D01*
X55900851Y16943657D01*
X55622812Y16859315D01*
X55366570Y16722351D01*
X55141973Y16538028D01*
X54957650Y16313431D01*
X54920000Y16242994D01*
X54882351Y16313431D01*
X54698028Y16538028D01*
X54473431Y16722351D01*
X54217189Y16859315D01*
X53939150Y16943657D01*
X53650000Y16972136D01*
X53360851Y16943657D01*
X53082812Y16859315D01*
X52826570Y16722351D01*
X52601973Y16538028D01*
X52417650Y16313431D01*
X52380000Y16242994D01*
X52342351Y16313431D01*
X52158028Y16538028D01*
X51933431Y16722351D01*
X51677189Y16859315D01*
X51399150Y16943657D01*
X51110000Y16972136D01*
X50820851Y16943657D01*
X50542812Y16859315D01*
X50286570Y16722351D01*
X50061973Y16538028D01*
X50046814Y16519557D01*
X50046814Y16590000D01*
X50039574Y16663513D01*
X50018131Y16734200D01*
X49983309Y16799347D01*
X49936448Y16856448D01*
X49879347Y16903309D01*
X49814200Y16938131D01*
X49743513Y16959574D01*
X49670000Y16966814D01*
X47470000Y16966814D01*
X47396487Y16959574D01*
X47325800Y16938131D01*
X47300000Y16924341D01*
X47274200Y16938131D01*
X47203513Y16959574D01*
X47130000Y16966814D01*
X44930000Y16966814D01*
X44856487Y16959574D01*
X44785800Y16938131D01*
X44760000Y16924341D01*
X44734200Y16938131D01*
X44663513Y16959574D01*
X44590000Y16966814D01*
X42425000Y16966814D01*
X42425000Y17103430D01*
X42432135Y17175875D01*
X42425000Y17248320D01*
X42425000Y17248326D01*
X42403657Y17465024D01*
X42319315Y17743063D01*
X42275519Y17825000D01*
X47177775Y17825000D01*
X47249201Y17839207D01*
X47321650Y17846343D01*
X47391313Y17867475D01*
X47462742Y17881683D01*
X47530026Y17909553D01*
X47599689Y17930685D01*
X47663894Y17965003D01*
X47731175Y17992872D01*
X47791724Y18033330D01*
X47855931Y18067649D01*
X47912209Y18113835D01*
X47972758Y18154293D01*
X48024253Y18205788D01*
X48080528Y18251972D01*
X48126712Y18308247D01*
X48178207Y18359742D01*
X48218665Y18420291D01*
X48264851Y18476569D01*
X48299170Y18540776D01*
X48339628Y18601325D01*
X48367497Y18668606D01*
X48401815Y18732811D01*
X48422947Y18802474D01*
X48450817Y18869758D01*
X48465025Y18941187D01*
X48486157Y19010850D01*
X48493293Y19083300D01*
X48507500Y19154725D01*
X48507500Y19227549D01*
X48514636Y19300000D01*
X48507500Y19372452D01*
X48507500Y19445275D01*
X48493293Y19516700D01*
X48486157Y19589150D01*
X48465025Y19658813D01*
X48450817Y19730242D01*
X48422947Y19797526D01*
X48401815Y19867189D01*
X48367497Y19931394D01*
X48339628Y19998675D01*
X48299170Y20059224D01*
X48264851Y20123431D01*
X48218665Y20179709D01*
X48178207Y20240258D01*
X48126712Y20291753D01*
X48080528Y20348028D01*
X48024253Y20394212D01*
X47972758Y20445707D01*
X47912209Y20486165D01*
X47855931Y20532351D01*
X47791724Y20566670D01*
X47731175Y20607128D01*
X47663894Y20634997D01*
X47599689Y20669315D01*
X47530026Y20690447D01*
X47462742Y20718317D01*
X47391313Y20732525D01*
X47321650Y20753657D01*
X47249201Y20760793D01*
X47177775Y20775000D01*
X42147548Y20775000D01*
X41930850Y20753657D01*
X41652811Y20669315D01*
X41574552Y20627484D01*
X41570874Y20664824D01*
X41570874Y20664829D01*
X41550555Y20871135D01*
X41549531Y20881529D01*
X41494794Y21061972D01*
X41465189Y21159566D01*
X41328225Y21415808D01*
X41259254Y21499849D01*
X41190087Y21584130D01*
X41190085Y21584132D01*
X41143902Y21640406D01*
X41087627Y21686590D01*
X40494229Y22279988D01*
X40448047Y22336260D01*
X40391776Y22382441D01*
X40132694Y22641523D01*
X39188343Y23585873D01*
X39188339Y23585878D01*
X37542458Y25231758D01*
X37496270Y25288038D01*
X37271673Y25472361D01*
X37015431Y25609325D01*
X36737392Y25693667D01*
X36520694Y25715010D01*
X36520687Y25715010D01*
X36448242Y25722145D01*
X36375797Y25715010D01*
X31421369Y25715010D01*
X31357189Y25749315D01*
X31079150Y25833657D01*
X30862452Y25855000D01*
X29447548Y25855000D01*
X29230850Y25833657D01*
X28952811Y25749315D01*
X28696569Y25612351D01*
X28471972Y25428028D01*
X28287649Y25203431D01*
X28150685Y24947189D01*
X28066343Y24669150D01*
X28037864Y24380000D01*
X28066343Y24090850D01*
X28150685Y23812811D01*
X28287649Y23556569D01*
X28302487Y23538489D01*
X28367649Y23416579D01*
X28551972Y23191982D01*
X28697279Y23072731D01*
X28696569Y23072351D01*
X28471972Y22888028D01*
X28287649Y22663431D01*
X28150685Y22407189D01*
X28066343Y22129150D01*
X28037864Y21840000D01*
X28066343Y21550850D01*
X28150685Y21272811D01*
X28287649Y21016569D01*
X28471972Y20791972D01*
X28696569Y20607649D01*
X28810549Y20546726D01*
X28596569Y20432351D01*
X28371972Y20248028D01*
X28187649Y20023431D01*
X28050685Y19767189D01*
X27966343Y19489150D01*
X27937864Y19200000D01*
X27966343Y18910850D01*
X28050685Y18632811D01*
X28187649Y18376569D01*
X28371972Y18151972D01*
X28596569Y17967649D01*
X28852811Y17830685D01*
X29130850Y17746343D01*
X29347548Y17725000D01*
X31825001Y17725000D01*
X31825001Y16966814D01*
X29690000Y16966814D01*
X29616487Y16959574D01*
X29545800Y16938131D01*
X29520000Y16924341D01*
X29494200Y16938131D01*
X29423513Y16959574D01*
X29350000Y16966814D01*
X28455565Y16966814D01*
X28372452Y16975000D01*
X25627548Y16975000D01*
X25410850Y16953657D01*
X25132811Y16869315D01*
X24876569Y16732351D01*
X24651972Y16548028D01*
X24576790Y16456419D01*
X24558550Y16441450D01*
X24392972Y16239692D01*
X24269937Y16009509D01*
X24194172Y15759745D01*
X24168589Y15500000D01*
X24194172Y15240255D01*
X24269937Y14990491D01*
X24392972Y14760308D01*
X24558550Y14558550D01*
X24576790Y14543581D01*
X24651972Y14451972D01*
X24876569Y14267649D01*
X25132811Y14130685D01*
X25410850Y14046343D01*
X25627548Y14025000D01*
X26773186Y14025000D01*
X26773186Y13294990D01*
X25430955Y13294990D01*
X25410248Y13315697D01*
X25168665Y13477118D01*
X24900232Y13588307D01*
X24615265Y13644990D01*
X24324715Y13644990D01*
X24039748Y13588307D01*
X23771315Y13477118D01*
X23529732Y13315697D01*
X23324283Y13110248D01*
X23162862Y12868665D01*
X23051673Y12600232D01*
X22994990Y12315265D01*
X19456550Y12315265D01*
X19452000Y12361452D01*
X19452000Y16154182D01*
X19495317Y16258758D01*
X19552000Y16543725D01*
X19552000Y16834275D01*
X19495317Y17119242D01*
X19452000Y17223818D01*
X19452000Y19316548D01*
X19459136Y19389000D01*
X19430657Y19678150D01*
X19346315Y19956189D01*
X19209351Y20212431D01*
X19125995Y20314000D01*
X21949452Y20314000D01*
X22166150Y20335343D01*
X22263916Y20365000D01*
X22681681Y20365000D01*
X22754126Y20357865D01*
X22826571Y20365000D01*
X22826578Y20365000D01*
X23043276Y20386343D01*
X23321315Y20470685D01*
X23577557Y20607649D01*
X23802154Y20791972D01*
X23848342Y20848252D01*
X25779758Y22779667D01*
X25836027Y22825846D01*
X25882208Y22882117D01*
X25882213Y22882122D01*
X25965765Y22983931D01*
X26020351Y23050443D01*
X26157315Y23306685D01*
X26233117Y23556570D01*
X26241657Y23584723D01*
X26251862Y23688339D01*
X26263000Y23801422D01*
X26263000Y23801428D01*
X26270135Y23873873D01*
X26263000Y23946318D01*
X26263000Y26364000D01*
X38867364Y26364000D01*
X38874500Y26291548D01*
X38874500Y26218725D01*
X38888707Y26147300D01*
X38895843Y26074850D01*
X38916975Y26005187D01*
X38931183Y25933758D01*
X38959053Y25866474D01*
X38980185Y25796811D01*
X39014503Y25732606D01*
X39042372Y25665325D01*
X39082830Y25604776D01*
X39117149Y25540569D01*
X39163335Y25484291D01*
X39203793Y25423742D01*
X39255288Y25372247D01*
X39301472Y25315972D01*
X39357747Y25269788D01*
X39409242Y25218293D01*
X39469791Y25177835D01*
X39526069Y25131649D01*
X39590276Y25097330D01*
X39650825Y25056872D01*
X39718106Y25029003D01*
X39782311Y24994685D01*
X39851974Y24973553D01*
X39919258Y24945683D01*
X39990687Y24931475D01*
X40060350Y24910343D01*
X40132799Y24903207D01*
X40204225Y24889000D01*
X40277048Y24889000D01*
X40349500Y24881864D01*
X40421952Y24889000D01*
X40494775Y24889000D01*
X40566200Y24903207D01*
X40638650Y24910343D01*
X40708313Y24931475D01*
X40779742Y24945683D01*
X40847026Y24973553D01*
X40916689Y24994685D01*
X40980894Y25029003D01*
X41048175Y25056872D01*
X41108724Y25097330D01*
X41172931Y25131649D01*
X41229209Y25177835D01*
X41289758Y25218293D01*
X41341253Y25269788D01*
X41397528Y25315972D01*
X41443712Y25372247D01*
X41495207Y25423742D01*
X41535665Y25484291D01*
X41581851Y25540569D01*
X41616170Y25604776D01*
X41656628Y25665325D01*
X41684497Y25732606D01*
X41718815Y25796811D01*
X41739947Y25866474D01*
X41767817Y25933758D01*
X41782025Y26005187D01*
X41803157Y26074850D01*
X41810293Y26147299D01*
X41824500Y26218725D01*
X41824500Y26291548D01*
X41831636Y26364000D01*
X41824500Y26436452D01*
X41824500Y27749897D01*
X42046569Y27567649D01*
X42302811Y27430685D01*
X42580850Y27346343D01*
X42797548Y27325000D01*
X47089036Y27325000D01*
X52734084Y21679951D01*
X52775685Y21542811D01*
X52912649Y21286569D01*
X53096972Y21061972D01*
X53321569Y20877649D01*
X53577811Y20740685D01*
X53855850Y20656343D01*
X54072548Y20635000D01*
X54226020Y20635000D01*
X54400000Y20617865D01*
X54573979Y20635000D01*
X55487452Y20635000D01*
X55704150Y20656343D01*
X55982189Y20740685D01*
X56238431Y20877649D01*
X56463028Y21061972D01*
X56647351Y21286569D01*
X56784315Y21542811D01*
X56868657Y21820850D01*
X56897136Y22110000D01*
X61552864Y22110000D01*
X61581343Y21820850D01*
X61665685Y21542811D01*
X61802649Y21286569D01*
X61986972Y21061972D01*
X62211569Y20877649D01*
X62335001Y20811674D01*
X62335000Y19489775D01*
X62335000Y19199225D01*
X62335001Y19199220D01*
X62335000Y14292452D01*
X62335000Y14292451D01*
X62335001Y8748842D01*
X62283569Y8721351D01*
X62058972Y8537028D01*
X61874649Y8312431D01*
X61737685Y8056189D01*
X61653343Y7778150D01*
X61624864Y7489000D01*
X61653343Y7199850D01*
X61737685Y6921811D01*
X61874649Y6665569D01*
X62058972Y6440972D01*
X62283569Y6256649D01*
X62539811Y6119685D01*
X62817850Y6035343D01*
X63034548Y6014000D01*
X63804554Y6014000D01*
X63876999Y6006865D01*
X63949444Y6014000D01*
X64449452Y6014000D01*
X64666150Y6035343D01*
X64944189Y6119685D01*
X65200431Y6256649D01*
X65425028Y6440972D01*
X65609351Y6665569D01*
X65746315Y6921811D01*
X65830657Y7199850D01*
X65859136Y7489000D01*
X65830657Y7778150D01*
X65746315Y8056189D01*
X65609351Y8312431D01*
X65425028Y8537028D01*
X65285000Y8651947D01*
X65285000Y21006143D01*
X65353028Y21061972D01*
X65537351Y21286569D01*
X65674315Y21542811D01*
X65758657Y21820850D01*
X65787136Y22110000D01*
X65758657Y22399150D01*
X65674315Y22677189D01*
X65537351Y22933431D01*
X65353028Y23158028D01*
X65128431Y23342351D01*
X64872189Y23479315D01*
X64594150Y23563657D01*
X64377452Y23585000D01*
X64195268Y23585000D01*
X64099150Y23614157D01*
X63810000Y23642636D01*
X63520851Y23614157D01*
X63424733Y23585000D01*
X62962548Y23585000D01*
X62745850Y23563657D01*
X62467811Y23479315D01*
X62211569Y23342351D01*
X61986972Y23158028D01*
X61802649Y22933431D01*
X61665685Y22677189D01*
X61581343Y22399150D01*
X61552864Y22110000D01*
X56897136Y22110000D01*
X56868657Y22399150D01*
X56784315Y22677189D01*
X56647351Y22933431D01*
X56463028Y23158028D01*
X56238431Y23342351D01*
X55982189Y23479315D01*
X55704150Y23563657D01*
X55487452Y23585000D01*
X55000965Y23585000D01*
X48794216Y29791748D01*
X48748028Y29848028D01*
X48523431Y30032351D01*
X48267189Y30169315D01*
X47989150Y30253657D01*
X47772452Y30275000D01*
X47772445Y30275000D01*
X47700000Y30282135D01*
X47627555Y30275000D01*
X43036838Y30275000D01*
X45143839Y32382000D01*
X48051275Y32382000D01*
X48122701Y32396207D01*
X48195150Y32403343D01*
X48264813Y32424475D01*
X48336242Y32438683D01*
X48403526Y32466553D01*
X48473189Y32487685D01*
X48537394Y32522003D01*
X48604675Y32549872D01*
X48665224Y32590330D01*
X48729431Y32624649D01*
X48785709Y32670835D01*
X48846258Y32711293D01*
X48897753Y32762788D01*
X48954028Y32808972D01*
X49000213Y32865248D01*
X49051707Y32916742D01*
X49092165Y32977291D01*
X49138351Y33033569D01*
X49172670Y33097776D01*
X49213128Y33158325D01*
X49240997Y33225606D01*
X49275315Y33289811D01*
X49296447Y33359474D01*
X49324317Y33426758D01*
X49338525Y33498187D01*
X49359657Y33567850D01*
X49366793Y33640300D01*
X49381000Y33711725D01*
X49381000Y33784548D01*
X49388136Y33857000D01*
X56148990Y33857000D01*
X56156126Y33784548D01*
X56156126Y33711725D01*
X56170333Y33640300D01*
X56177469Y33567850D01*
X56198601Y33498187D01*
X56212809Y33426758D01*
X56240679Y33359474D01*
X56261811Y33289811D01*
X56296129Y33225606D01*
X56323998Y33158325D01*
X56364456Y33097776D01*
X56398775Y33033569D01*
X56444961Y32977291D01*
X56485419Y32916742D01*
X56536913Y32865248D01*
X56583098Y32808972D01*
X56639373Y32762788D01*
X56690868Y32711293D01*
X56751417Y32670835D01*
X56807695Y32624649D01*
X56871902Y32590330D01*
X56932451Y32549872D01*
X56999732Y32522003D01*
X57063937Y32487685D01*
X57133600Y32466553D01*
X57200884Y32438683D01*
X57272313Y32424475D01*
X57341976Y32403343D01*
X57414425Y32396207D01*
X57485851Y32382000D01*
X57558681Y32382000D01*
X57631126Y32374865D01*
X57703571Y32382000D01*
X57776401Y32382000D01*
X57847827Y32396207D01*
X57920276Y32403343D01*
X57989939Y32424475D01*
X58061368Y32438683D01*
X58128652Y32466553D01*
X58198315Y32487685D01*
X58262520Y32522003D01*
X58329801Y32549872D01*
X58390350Y32590330D01*
X58454557Y32624649D01*
X58510835Y32670835D01*
X58571384Y32711293D01*
X58622879Y32762788D01*
X58679154Y32808972D01*
X58725339Y32865248D01*
X58776833Y32916742D01*
X58776835Y32916745D01*
X64801753Y38941662D01*
X64858028Y38987846D01*
X65042351Y39212443D01*
X65179315Y39468685D01*
X65238203Y39662812D01*
X65263657Y39746723D01*
X65279030Y39902809D01*
X65285000Y39963422D01*
X65285000Y39963428D01*
X65292135Y40035873D01*
X65285000Y40108318D01*
X65285000Y42232452D01*
X65263657Y42449150D01*
X65179315Y42727189D01*
X65042351Y42983431D01*
X64946743Y43099929D01*
X64858028Y43208028D01*
X64633431Y43392351D01*
X64377189Y43529315D01*
X64099150Y43613657D01*
X63810000Y43642136D01*
X63520850Y43613657D01*
X63242811Y43529315D01*
X62986569Y43392351D01*
X62761972Y43208027D01*
X62577649Y42983430D01*
X62564775Y42959344D01*
X62440685Y42727189D01*
X62356343Y42449150D01*
X62335000Y42232452D01*
X62335000Y40817549D01*
X62335001Y40817543D01*
X62335001Y40646840D01*
X56690871Y35002709D01*
X56690868Y35002707D01*
X56639374Y34951213D01*
X56583098Y34905028D01*
X56536914Y34848753D01*
X56485419Y34797258D01*
X56444961Y34736709D01*
X56398775Y34680431D01*
X56364456Y34616224D01*
X56323998Y34555675D01*
X56296129Y34488394D01*
X56261811Y34424189D01*
X56240679Y34354526D01*
X56212809Y34287242D01*
X56198601Y34215813D01*
X56177469Y34146150D01*
X56170333Y34073700D01*
X56156126Y34002275D01*
X56156126Y33929452D01*
X56148990Y33857000D01*
X49388136Y33857000D01*
X49381000Y33929452D01*
X49381000Y34002275D01*
X49366793Y34073700D01*
X49359657Y34146150D01*
X49338525Y34215813D01*
X49324317Y34287242D01*
X49296447Y34354526D01*
X49275315Y34424189D01*
X49240997Y34488394D01*
X49213128Y34555675D01*
X49172670Y34616224D01*
X49138351Y34680431D01*
X49092165Y34736709D01*
X49051707Y34797258D01*
X49000212Y34848753D01*
X48954028Y34905028D01*
X48897752Y34951213D01*
X48846258Y35002707D01*
X48785709Y35043165D01*
X48729431Y35089351D01*
X48665224Y35123670D01*
X48604675Y35164128D01*
X48537394Y35191997D01*
X48473189Y35226315D01*
X48403526Y35247447D01*
X48336242Y35275317D01*
X48264813Y35289525D01*
X48195150Y35310657D01*
X48122701Y35317793D01*
X48051275Y35332000D01*
X44605318Y35332000D01*
X44532873Y35339135D01*
X44460428Y35332000D01*
X44460422Y35332000D01*
X44274153Y35313654D01*
X44243723Y35310657D01*
X44232713Y35307317D01*
X43965685Y35226315D01*
X43709443Y35089351D01*
X43484846Y34905028D01*
X43438662Y34848753D01*
X39357748Y30767838D01*
X39301472Y30721653D01*
X39117149Y30497056D01*
X39039281Y30351375D01*
X38980185Y30240814D01*
X38896049Y29963453D01*
X38895843Y29962775D01*
X38874500Y29746077D01*
X38874500Y29746071D01*
X38867365Y29673626D01*
X38874500Y29601181D01*
X38874501Y26509280D01*
X38874500Y26509275D01*
X38874500Y26436452D01*
X38867364Y26364000D01*
X26263000Y26364000D01*
X26263000Y27325000D01*
X30242452Y27325000D01*
X30459150Y27346343D01*
X30737189Y27430685D01*
X30993431Y27567649D01*
X31218028Y27751972D01*
X31402351Y27976569D01*
X31539315Y28232811D01*
X31623657Y28510850D01*
X31652136Y28800000D01*
X31623657Y29089150D01*
X31539315Y29367189D01*
X31402351Y29623431D01*
X31218028Y29848028D01*
X30993431Y30032351D01*
X30737189Y30169315D01*
X30459150Y30253657D01*
X30242452Y30275000D01*
X27541000Y30275000D01*
X27541000Y31350452D01*
X27519657Y31567150D01*
X27435315Y31845189D01*
X27298351Y32101431D01*
X27114028Y32326028D01*
X26889431Y32510351D01*
X26873381Y32518930D01*
X26870431Y32521351D01*
X26614189Y32658315D01*
X26336150Y32742657D01*
X26119452Y32764000D01*
X24704548Y32764000D01*
X24487850Y32742657D01*
X24209811Y32658315D01*
X23953569Y32521351D01*
X23728972Y32337028D01*
X23544649Y32112431D01*
X23407685Y31856189D01*
X23323343Y31578150D01*
X23294864Y31289000D01*
X23323343Y30999850D01*
X23407685Y30721811D01*
X23544649Y30465569D01*
X23728972Y30240972D01*
X23953569Y30056649D01*
X23981798Y30041560D01*
X23964569Y30032351D01*
X23908291Y29986165D01*
X23847742Y29945707D01*
X23796248Y29894213D01*
X23739972Y29848028D01*
X23693788Y29791753D01*
X23642293Y29740258D01*
X23601835Y29679709D01*
X23555649Y29623431D01*
X23521330Y29559224D01*
X23480872Y29498675D01*
X23453003Y29431394D01*
X23418685Y29367189D01*
X23397553Y29297526D01*
X23369683Y29230242D01*
X23355475Y29158813D01*
X23334343Y29089150D01*
X23327207Y29016700D01*
X23313000Y28945275D01*
X23313000Y28872452D01*
X23305864Y28800000D01*
X23313000Y28727549D01*
X23313000Y28654725D01*
X23313001Y28654720D01*
X23313000Y24803178D01*
X23269315Y24947189D01*
X23132351Y25203431D01*
X22948028Y25428028D01*
X22723431Y25612351D01*
X22467189Y25749315D01*
X22231004Y25820961D01*
X22052010Y25999954D01*
X22052010Y31190671D01*
X22059145Y31263116D01*
X22052010Y31335561D01*
X22052010Y31335568D01*
X22030667Y31552266D01*
X21946325Y31830305D01*
X21809361Y32086547D01*
X21625038Y32311144D01*
X21568763Y32357328D01*
X19045342Y34880748D01*
X18999154Y34937028D01*
X18774557Y35121351D01*
X18518315Y35258315D01*
X18240276Y35342657D01*
X18023578Y35364000D01*
X18023571Y35364000D01*
X17951126Y35371135D01*
X17878681Y35364000D01*
X12220510Y35364000D01*
X12220510Y39016214D01*
X12242145Y39235883D01*
X12213667Y39525034D01*
X12207152Y39546512D01*
X12269315Y39662811D01*
X12353657Y39940850D01*
X12375000Y40157548D01*
X12375000Y41572452D01*
X12353657Y41789150D01*
X12269315Y42067189D01*
X12180981Y42232452D01*
X26775000Y42232452D01*
X26775000Y40817549D01*
X26796343Y40600851D01*
X26880685Y40322812D01*
X27017649Y40066570D01*
X27201972Y39841973D01*
X27426569Y39657649D01*
X27682811Y39520685D01*
X27960850Y39436343D01*
X28250000Y39407864D01*
X28539149Y39436343D01*
X28817188Y39520685D01*
X29073430Y39657649D01*
X29298027Y39841972D01*
X29482351Y40066569D01*
X29520000Y40137006D01*
X29557649Y40066570D01*
X29741972Y39841973D01*
X29966569Y39657649D01*
X30222811Y39520685D01*
X30500850Y39436343D01*
X30790000Y39407864D01*
X31079149Y39436343D01*
X31357188Y39520685D01*
X31613430Y39657649D01*
X31838027Y39841972D01*
X32022351Y40066569D01*
X32060000Y40137006D01*
X32097649Y40066570D01*
X32281972Y39841973D01*
X32506569Y39657649D01*
X32762811Y39520685D01*
X33040850Y39436343D01*
X33330000Y39407864D01*
X33619149Y39436343D01*
X33897188Y39520685D01*
X34153430Y39657649D01*
X34378027Y39841972D01*
X34562351Y40066569D01*
X34600000Y40137006D01*
X34637649Y40066570D01*
X34821972Y39841973D01*
X35046569Y39657649D01*
X35302811Y39520685D01*
X35580850Y39436343D01*
X35870000Y39407864D01*
X36159149Y39436343D01*
X36437188Y39520685D01*
X36693430Y39657649D01*
X36918027Y39841972D01*
X37102351Y40066569D01*
X37140000Y40137006D01*
X37177649Y40066570D01*
X37361972Y39841973D01*
X37586569Y39657649D01*
X37842811Y39520685D01*
X38120850Y39436343D01*
X38410000Y39407864D01*
X38699149Y39436343D01*
X38977188Y39520685D01*
X39233430Y39657649D01*
X39458027Y39841972D01*
X39642351Y40066569D01*
X39680000Y40137006D01*
X39717649Y40066570D01*
X39901972Y39841973D01*
X40126569Y39657649D01*
X40382811Y39520685D01*
X40660850Y39436343D01*
X40950000Y39407864D01*
X41239149Y39436343D01*
X41517188Y39520685D01*
X41773430Y39657649D01*
X41998027Y39841972D01*
X42182351Y40066569D01*
X42220000Y40137006D01*
X42257649Y40066570D01*
X42441972Y39841973D01*
X42666569Y39657649D01*
X42922811Y39520685D01*
X43200850Y39436343D01*
X43490000Y39407864D01*
X43779149Y39436343D01*
X44057188Y39520685D01*
X44313430Y39657649D01*
X44538027Y39841972D01*
X44722351Y40066569D01*
X44760000Y40137006D01*
X44797649Y40066570D01*
X44981972Y39841973D01*
X45206569Y39657649D01*
X45462811Y39520685D01*
X45740850Y39436343D01*
X46030000Y39407864D01*
X46319149Y39436343D01*
X46597188Y39520685D01*
X46853430Y39657649D01*
X47078027Y39841972D01*
X47262351Y40066569D01*
X47300000Y40137006D01*
X47337649Y40066570D01*
X47521972Y39841973D01*
X47746569Y39657649D01*
X48002811Y39520685D01*
X48280850Y39436343D01*
X48570000Y39407864D01*
X48859149Y39436343D01*
X49137188Y39520685D01*
X49393430Y39657649D01*
X49618027Y39841972D01*
X49802351Y40066569D01*
X49840000Y40137006D01*
X49877649Y40066570D01*
X50061972Y39841973D01*
X50286569Y39657649D01*
X50542811Y39520685D01*
X50820850Y39436343D01*
X51110000Y39407864D01*
X51399149Y39436343D01*
X51677188Y39520685D01*
X51933430Y39657649D01*
X52158027Y39841972D01*
X52342351Y40066569D01*
X52380000Y40137006D01*
X52417649Y40066570D01*
X52601972Y39841973D01*
X52826569Y39657649D01*
X53082811Y39520685D01*
X53360850Y39436343D01*
X53650000Y39407864D01*
X53939149Y39436343D01*
X54217188Y39520685D01*
X54473430Y39657649D01*
X54698027Y39841972D01*
X54882351Y40066569D01*
X54920000Y40137006D01*
X54957649Y40066570D01*
X55141972Y39841973D01*
X55366569Y39657649D01*
X55622811Y39520685D01*
X55900850Y39436343D01*
X56190000Y39407864D01*
X56479149Y39436343D01*
X56757188Y39520685D01*
X57013430Y39657649D01*
X57238027Y39841972D01*
X57422351Y40066569D01*
X57460000Y40137006D01*
X57497649Y40066570D01*
X57681972Y39841973D01*
X57906569Y39657649D01*
X58162811Y39520685D01*
X58440850Y39436343D01*
X58730000Y39407864D01*
X59019149Y39436343D01*
X59297188Y39520685D01*
X59553430Y39657649D01*
X59778027Y39841972D01*
X59962351Y40066569D01*
X60099315Y40322811D01*
X60183657Y40600850D01*
X60205000Y40817548D01*
X60205000Y42232452D01*
X60183657Y42449150D01*
X60099315Y42727189D01*
X59962351Y42983431D01*
X59778028Y43208028D01*
X59553431Y43392351D01*
X59297189Y43529315D01*
X59019150Y43613657D01*
X58730000Y43642136D01*
X58440851Y43613657D01*
X58162812Y43529315D01*
X57906570Y43392351D01*
X57681973Y43208028D01*
X57497650Y42983431D01*
X57460000Y42912994D01*
X57422351Y42983431D01*
X57238028Y43208028D01*
X57013431Y43392351D01*
X56757189Y43529315D01*
X56479150Y43613657D01*
X56190000Y43642136D01*
X55900851Y43613657D01*
X55622812Y43529315D01*
X55366570Y43392351D01*
X55141973Y43208028D01*
X54957650Y42983431D01*
X54920000Y42912994D01*
X54882351Y42983431D01*
X54698028Y43208028D01*
X54473431Y43392351D01*
X54217189Y43529315D01*
X53939150Y43613657D01*
X53650000Y43642136D01*
X53360851Y43613657D01*
X53082812Y43529315D01*
X52826570Y43392351D01*
X52601973Y43208028D01*
X52417650Y42983431D01*
X52380000Y42912994D01*
X52342351Y42983431D01*
X52158028Y43208028D01*
X51933431Y43392351D01*
X51677189Y43529315D01*
X51399150Y43613657D01*
X51110000Y43642136D01*
X50820851Y43613657D01*
X50542812Y43529315D01*
X50286570Y43392351D01*
X50061973Y43208028D01*
X49877650Y42983431D01*
X49840000Y42912994D01*
X49802351Y42983431D01*
X49618028Y43208028D01*
X49393431Y43392351D01*
X49137189Y43529315D01*
X48859150Y43613657D01*
X48570000Y43642136D01*
X48280851Y43613657D01*
X48002812Y43529315D01*
X47746570Y43392351D01*
X47521973Y43208028D01*
X47337650Y42983431D01*
X47300000Y42912994D01*
X47262351Y42983431D01*
X47078028Y43208028D01*
X46853431Y43392351D01*
X46597189Y43529315D01*
X46319150Y43613657D01*
X46030000Y43642136D01*
X45740851Y43613657D01*
X45462812Y43529315D01*
X45206570Y43392351D01*
X44981973Y43208028D01*
X44797650Y42983431D01*
X44760000Y42912994D01*
X44722351Y42983431D01*
X44538028Y43208028D01*
X44313431Y43392351D01*
X44057189Y43529315D01*
X43779150Y43613657D01*
X43490000Y43642136D01*
X43200851Y43613657D01*
X42922812Y43529315D01*
X42666570Y43392351D01*
X42441973Y43208028D01*
X42257650Y42983431D01*
X42220000Y42912994D01*
X42182351Y42983431D01*
X41998028Y43208028D01*
X41773431Y43392351D01*
X41517189Y43529315D01*
X41239150Y43613657D01*
X40950000Y43642136D01*
X40660851Y43613657D01*
X40382812Y43529315D01*
X40126570Y43392351D01*
X39901973Y43208028D01*
X39717650Y42983431D01*
X39680000Y42912994D01*
X39642351Y42983431D01*
X39458028Y43208028D01*
X39233431Y43392351D01*
X38977189Y43529315D01*
X38699150Y43613657D01*
X38410000Y43642136D01*
X38120851Y43613657D01*
X37842812Y43529315D01*
X37586570Y43392351D01*
X37361973Y43208028D01*
X37177650Y42983431D01*
X37140000Y42912994D01*
X37102351Y42983431D01*
X36918028Y43208028D01*
X36693431Y43392351D01*
X36437189Y43529315D01*
X36159150Y43613657D01*
X35870000Y43642136D01*
X35580851Y43613657D01*
X35302812Y43529315D01*
X35046570Y43392351D01*
X34821973Y43208028D01*
X34637650Y42983431D01*
X34600000Y42912994D01*
X34562351Y42983431D01*
X34378028Y43208028D01*
X34153431Y43392351D01*
X33897189Y43529315D01*
X33619150Y43613657D01*
X33330000Y43642136D01*
X33040851Y43613657D01*
X32762812Y43529315D01*
X32506570Y43392351D01*
X32281973Y43208028D01*
X32097650Y42983431D01*
X32060000Y42912994D01*
X32022351Y42983431D01*
X31838028Y43208028D01*
X31613431Y43392351D01*
X31357189Y43529315D01*
X31079150Y43613657D01*
X30790000Y43642136D01*
X30500851Y43613657D01*
X30222812Y43529315D01*
X29966570Y43392351D01*
X29741973Y43208028D01*
X29557650Y42983431D01*
X29520000Y42912994D01*
X29482351Y42983431D01*
X29298028Y43208028D01*
X29073431Y43392351D01*
X28817189Y43529315D01*
X28539150Y43613657D01*
X28250000Y43642136D01*
X27960851Y43613657D01*
X27682812Y43529315D01*
X27426570Y43392351D01*
X27201973Y43208028D01*
X27017650Y42983431D01*
X26880685Y42727189D01*
X26796343Y42449150D01*
X26775000Y42232452D01*
X12180981Y42232452D01*
X12132351Y42323431D01*
X11948028Y42548028D01*
X11723431Y42732351D01*
X11467189Y42869315D01*
X11189150Y42953657D01*
X10900000Y42982136D01*
X10610851Y42953657D01*
X10332812Y42869315D01*
X10076570Y42732351D01*
X9851973Y42548028D01*
X9667650Y42323431D01*
X9630000Y42252994D01*
X9592351Y42323431D01*
X9408028Y42548028D01*
X9183431Y42732351D01*
X8927189Y42869315D01*
X8649150Y42953657D01*
X8360000Y42982136D01*
X8070851Y42953657D01*
X7792812Y42869315D01*
X7536570Y42732351D01*
X7311973Y42548028D01*
X7127650Y42323431D01*
X6990685Y42067189D01*
X6906343Y41789150D01*
X6902959Y41754791D01*
X6891844Y41718150D01*
X6870501Y41501452D01*
X6870500Y33129953D01*
X6863364Y33057500D01*
X6870500Y32985049D01*
X6870501Y24678844D01*
X5285248Y23093590D01*
X5228972Y23047405D01*
X5044649Y22822808D01*
X4926571Y22601899D01*
X4907685Y22566566D01*
X4828333Y22304976D01*
X4823343Y22288527D01*
X4802000Y22071829D01*
X4802000Y22071823D01*
X4794865Y21999378D01*
X4802000Y21926933D01*
X4802001Y19925776D01*
X4770685Y19867189D01*
X4686343Y19589150D01*
X4657864Y19300000D01*
X425000Y19300000D01*
X425000Y46694521D01*
X1025000Y46694521D01*
X1025000Y46305479D01*
X1100898Y45923914D01*
X1249778Y45564487D01*
X1465917Y45241011D01*
X1741011Y44965917D01*
X2064487Y44749778D01*
X2423914Y44600898D01*
X2805479Y44525000D01*
X3194521Y44525000D01*
X3576086Y44600898D01*
X3935513Y44749778D01*
X4258989Y44965917D01*
X4534083Y45241011D01*
X4750222Y45564487D01*
X4899102Y45923914D01*
X4975000Y46305479D01*
X4975000Y46694521D01*
X70525000Y46694521D01*
X70525000Y46305479D01*
X70600898Y45923914D01*
X70749778Y45564487D01*
X70965917Y45241011D01*
X71241011Y44965917D01*
X71564487Y44749778D01*
X71923914Y44600898D01*
X72305479Y44525000D01*
X72694521Y44525000D01*
X73076086Y44600898D01*
X73435513Y44749778D01*
X73758989Y44965917D01*
X74034083Y45241011D01*
X74250222Y45564487D01*
X74399102Y45923914D01*
X74475000Y46305479D01*
X74475000Y46694521D01*
X74399102Y47076086D01*
X74250222Y47435513D01*
X74034083Y47758989D01*
X73758989Y48034083D01*
X73435513Y48250222D01*
X73076086Y48399102D01*
X72694521Y48475000D01*
X72305479Y48475000D01*
X71923914Y48399102D01*
X71564487Y48250222D01*
X71241011Y48034083D01*
X70965917Y47758989D01*
X70749778Y47435513D01*
X70600898Y47076086D01*
X70525000Y46694521D01*
X4975000Y46694521D01*
X4899102Y47076086D01*
X4750222Y47435513D01*
X4534083Y47758989D01*
X4258989Y48034083D01*
X3935513Y48250222D01*
X3576086Y48399102D01*
X3194521Y48475000D01*
X2805479Y48475000D01*
X2423914Y48399102D01*
X2064487Y48250222D01*
X1741011Y48034083D01*
X1465917Y47758989D01*
X1249778Y47435513D01*
X1100898Y47076086D01*
X1025000Y46694521D01*
X425000Y46694521D01*
X425000Y49075057D01*
X75075000Y49084944D01*
X75075001Y425000D01*
%TD*%
M02*
