M48
; DRILL file {KiCad (5.1.6)-1} date 12/26/24 07:47:27
; FORMAT={-:-/ absolute / metric / decimal}
; #@! TF.CreationDate,2024-12-26T07:47:27-05:00
; #@! TF.GenerationSoftware,Kicad,Pcbnew,(5.1.6)-1
FMAT,2
METRIC
T1C0.800
T2C0.900
T3C3.200
%
G90
G05
T1
X68.177Y7.489
X64.377Y7.489
X24.47Y12.17
X17.977Y12.289
X28.25Y14.22
X30.79Y14.22
X33.33Y14.22
X35.87Y14.22
X38.41Y14.22
X40.95Y14.22
X43.49Y14.22
X46.03Y14.22
X48.57Y14.22
X51.11Y14.22
X53.65Y14.22
X56.19Y14.22
X58.73Y14.22
X61.27Y14.22
X63.81Y14.22
X25.6Y15.5
X23.3Y15.5
X18.077Y16.689
X29.42Y19.2
X21.8Y19.2
X34.6Y19.3
X42.22Y19.3
X47.032Y19.3
X63.81Y19.345
X21.9Y21.84
X29.52Y21.84
X34.6Y21.84
X42.22Y21.84
X63.035Y22.11
X55.415Y22.11
X18.077Y24.309
X29.52Y24.38
X21.9Y24.38
X40.349Y26.364
X18.077Y26.789
X24.788Y28.8
X44.14Y28.8
X24.777Y31.289
X17.157Y31.289
X47.906Y33.857
X57.631Y33.857
X17.177Y33.889
X17.177Y41.509
X63.81Y42.16
X61.27Y42.16
X58.73Y42.16
X56.19Y42.16
X53.65Y42.16
X51.11Y42.16
X48.57Y42.16
X46.03Y42.16
X43.49Y42.16
X40.95Y42.16
X38.41Y42.16
X35.87Y42.16
X33.33Y42.16
X30.79Y42.16
X28.25Y42.16
T2
X25.922Y3.968
X32.422Y3.968
X38.622Y3.968
X45.122Y3.968
X51.322Y3.968
X57.822Y3.968
X57.822Y8.468
X51.322Y8.468
X45.122Y8.468
X38.622Y8.468
X32.422Y8.468
X25.922Y8.468
X3.6Y19.3
X6.14Y19.3
X8.68Y19.3
X11.22Y19.3
X13.76Y19.3
X28.9Y28.8
X28.9Y38.3
X44.14Y38.3
X10.9Y41.5
X8.36Y41.5
X5.82Y41.5
T3
X16.0Y3.0
X72.5Y3.0
X72.5Y46.5
X3.0Y46.5
T0
M30
