%TF.GenerationSoftware,KiCad,Pcbnew,(5.1.6)-1*%
%TF.CreationDate,2024-12-09T13:12:19-05:00*%
%TF.ProjectId,connector_pcb,636f6e6e-6563-4746-9f72-5f7063622e6b,rev?*%
%TF.SameCoordinates,PX1bdb590PY2e063a0*%
%TF.FileFunction,Copper,L2,Bot*%
%TF.FilePolarity,Positive*%
%FSLAX46Y46*%
G04 Gerber Fmt 4.6, Leading zero omitted, Abs format (unit mm)*
G04 Created by KiCad (PCBNEW (5.1.6)-1) date 2024-12-09 13:12:19*
%MOMM*%
%LPD*%
G01*
G04 APERTURE LIST*
%TA.AperFunction,ComponentPad*%
%ADD10O,3.470000X2.200000*%
%TD*%
%TA.AperFunction,ComponentPad*%
%ADD11C,2.600000*%
%TD*%
%TA.AperFunction,ComponentPad*%
%ADD12C,2.200000*%
%TD*%
%TA.AperFunction,ViaPad*%
%ADD13C,2.200000*%
%TD*%
%TA.AperFunction,Conductor*%
%ADD14C,2.200000*%
%TD*%
%TA.AperFunction,Conductor*%
%ADD15C,0.200000*%
%TD*%
G04 APERTURE END LIST*
D10*
%TO.P,J1,1*%
%TO.N,GND*%
X3175000Y6350000D03*
%TO.P,J1,2*%
%TO.N,FAN-*%
X3175000Y8890000D03*
%TO.P,J1,3*%
%TO.N,+3V3*%
X3175000Y11430000D03*
%TO.P,J1,4*%
%TO.N,+12V*%
X3175000Y13970000D03*
%TO.P,J1,5*%
%TO.N,ONE_WIRE*%
X3175000Y16510000D03*
%TD*%
D11*
%TO.P,J2,1*%
%TO.N,GND*%
X13890000Y3810000D03*
%TO.P,J2,2*%
%TO.N,+12V*%
X18970000Y3810000D03*
%TD*%
D12*
%TO.P,J3,1*%
%TO.N,+12V*%
X27940000Y6350000D03*
%TO.P,J3,2*%
%TO.N,FAN-*%
X27940000Y8890000D03*
%TD*%
D10*
%TO.P,J4,1*%
%TO.N,+3V3*%
X27255000Y15240000D03*
%TO.P,J4,2*%
%TO.N,ONE_WIRE*%
X27255000Y17780000D03*
%TO.P,J4,3*%
%TO.N,GND*%
X27255000Y20320000D03*
%TD*%
D13*
%TO.N,+12V*%
X8890000Y13970000D03*
X8950001Y6410001D03*
%TD*%
D14*
%TO.N,FAN-*%
X3810000Y8890000D02*
X27940000Y8890000D01*
%TO.N,+3V3*%
X3810000Y11430000D02*
X17780000Y11430000D01*
X17780000Y11430000D02*
X21590000Y15240000D01*
X21590000Y15240000D02*
X27940000Y15240000D01*
%TO.N,+12V*%
X15138001Y6410001D02*
X8950001Y6410001D01*
X15198002Y6350000D02*
X15138001Y6410001D01*
X18970000Y6270000D02*
X19050000Y6350000D01*
X18970000Y3810000D02*
X18970000Y6270000D01*
X19050000Y6350000D02*
X15198002Y6350000D01*
X3810000Y13970000D02*
X8890000Y13970000D01*
X27800000Y6350000D02*
X27660010Y6489990D01*
X27940000Y6350000D02*
X27800000Y6350000D01*
X9029990Y6489990D02*
X8950001Y6410001D01*
X27660010Y6489990D02*
X9029990Y6489990D01*
X8890000Y13970000D02*
X8890000Y13970000D01*
X8950001Y6410001D02*
X8950001Y6410001D01*
%TO.N,ONE_WIRE*%
X10160000Y16094126D02*
X12424116Y13830010D01*
X10160000Y16510000D02*
X10160000Y16094126D01*
X3810000Y16510000D02*
X10160000Y16510000D01*
X12424116Y13830010D02*
X16785884Y13830010D01*
X16785884Y13830010D02*
X20595884Y17640010D01*
X20595884Y17640010D02*
X27190000Y17640010D01*
%TD*%
D15*
%TO.N,GND*%
G36*
X31325001Y425000D02*
G01*
X425000Y425000D01*
X425000Y16510000D01*
X1032743Y16510000D01*
X1061705Y16215949D01*
X1147476Y15933198D01*
X1286762Y15672613D01*
X1474208Y15444208D01*
X1702613Y15256762D01*
X1733972Y15240000D01*
X1702613Y15223238D01*
X1474208Y15035792D01*
X1286762Y14807387D01*
X1147476Y14546802D01*
X1061705Y14264051D01*
X1032743Y13970000D01*
X1061705Y13675949D01*
X1147476Y13393198D01*
X1286762Y13132613D01*
X1474208Y12904208D01*
X1702613Y12716762D01*
X1733972Y12700000D01*
X1702613Y12683238D01*
X1474208Y12495792D01*
X1286762Y12267387D01*
X1147476Y12006802D01*
X1061705Y11724051D01*
X1032743Y11430000D01*
X1061705Y11135949D01*
X1147476Y10853198D01*
X1286762Y10592613D01*
X1474208Y10364208D01*
X1702613Y10176762D01*
X1733972Y10160000D01*
X1702613Y10143238D01*
X1474208Y9955792D01*
X1286762Y9727387D01*
X1147476Y9466802D01*
X1061705Y9184051D01*
X1032743Y8890000D01*
X1061705Y8595949D01*
X1147476Y8313198D01*
X1286762Y8052613D01*
X1474208Y7824208D01*
X1702613Y7636762D01*
X1963198Y7497476D01*
X2245949Y7411705D01*
X2466320Y7390000D01*
X7808680Y7390000D01*
X7784875Y7366195D01*
X7743731Y7304619D01*
X7696763Y7247388D01*
X7661865Y7182098D01*
X7620718Y7120518D01*
X7592376Y7052094D01*
X7557477Y6986803D01*
X7535986Y6915957D01*
X7507645Y6847535D01*
X7493196Y6774897D01*
X7471706Y6704052D01*
X7464449Y6630375D01*
X7450001Y6557738D01*
X7450001Y6483681D01*
X7442744Y6410001D01*
X7450001Y6336321D01*
X7450001Y6262264D01*
X7464449Y6189627D01*
X7471706Y6115950D01*
X7493196Y6045105D01*
X7507645Y5972467D01*
X7535986Y5904045D01*
X7557477Y5833199D01*
X7592376Y5767908D01*
X7620718Y5699484D01*
X7661865Y5637904D01*
X7696763Y5572614D01*
X7743731Y5515383D01*
X7784875Y5453807D01*
X7837237Y5401445D01*
X7884209Y5344209D01*
X7941445Y5297237D01*
X7993807Y5244875D01*
X8055383Y5203731D01*
X8112614Y5156763D01*
X8177904Y5121865D01*
X8239484Y5080718D01*
X8307908Y5052376D01*
X8373199Y5017477D01*
X8444045Y4995986D01*
X8512467Y4967645D01*
X8585105Y4953196D01*
X8655950Y4931706D01*
X8729627Y4924449D01*
X8802264Y4910001D01*
X8876321Y4910001D01*
X8950001Y4902744D01*
X9023681Y4910001D01*
X14777705Y4910001D01*
X14903951Y4871705D01*
X15124322Y4850000D01*
X15124324Y4850000D01*
X15198001Y4842743D01*
X15271679Y4850000D01*
X17470000Y4850000D01*
X17470000Y4625012D01*
X17463479Y4615252D01*
X17335330Y4305872D01*
X17270000Y3977435D01*
X17270000Y3642565D01*
X17335330Y3314128D01*
X17463479Y3004748D01*
X17649523Y2726313D01*
X17886313Y2489523D01*
X18164748Y2303479D01*
X18474128Y2175330D01*
X18802565Y2110000D01*
X19137435Y2110000D01*
X19465872Y2175330D01*
X19775252Y2303479D01*
X20053687Y2489523D01*
X20290477Y2726313D01*
X20476521Y3004748D01*
X20604670Y3314128D01*
X20670000Y3642565D01*
X20670000Y3977435D01*
X20604670Y4305872D01*
X20476521Y4615252D01*
X20470000Y4625011D01*
X20470000Y4989990D01*
X27162369Y4989990D01*
X27223198Y4957476D01*
X27505949Y4871705D01*
X27726320Y4850000D01*
X27800000Y4842743D01*
X27873680Y4850000D01*
X28087737Y4850000D01*
X28160374Y4864448D01*
X28234051Y4871705D01*
X28304896Y4893195D01*
X28377534Y4907644D01*
X28445956Y4935985D01*
X28516802Y4957476D01*
X28582093Y4992375D01*
X28650517Y5020717D01*
X28712097Y5061864D01*
X28777387Y5096762D01*
X28834618Y5143730D01*
X28896194Y5184874D01*
X28948556Y5237236D01*
X29005792Y5284208D01*
X29052764Y5341444D01*
X29105126Y5393806D01*
X29146270Y5455382D01*
X29193238Y5512613D01*
X29228136Y5577903D01*
X29269283Y5639483D01*
X29297625Y5707907D01*
X29332524Y5773198D01*
X29354015Y5844044D01*
X29382356Y5912466D01*
X29396805Y5985104D01*
X29418295Y6055949D01*
X29425552Y6129626D01*
X29440000Y6202263D01*
X29440000Y6276320D01*
X29447257Y6350000D01*
X29440000Y6423680D01*
X29440000Y6497737D01*
X29425552Y6570374D01*
X29418295Y6644051D01*
X29396805Y6714896D01*
X29382356Y6787534D01*
X29354015Y6855956D01*
X29332524Y6926802D01*
X29297625Y6992093D01*
X29269283Y7060517D01*
X29228136Y7122097D01*
X29193238Y7187387D01*
X29146270Y7244618D01*
X29105126Y7306194D01*
X29052764Y7358556D01*
X29005792Y7415792D01*
X28948556Y7462764D01*
X28896194Y7515126D01*
X28834618Y7556270D01*
X28777387Y7603238D01*
X28746028Y7620000D01*
X28777387Y7636762D01*
X28834618Y7683730D01*
X28896194Y7724874D01*
X28948556Y7777236D01*
X29005792Y7824208D01*
X29052764Y7881444D01*
X29105126Y7933806D01*
X29146270Y7995382D01*
X29193238Y8052613D01*
X29228136Y8117903D01*
X29269283Y8179483D01*
X29297625Y8247907D01*
X29332524Y8313198D01*
X29354015Y8384044D01*
X29382356Y8452466D01*
X29396805Y8525104D01*
X29418295Y8595949D01*
X29425552Y8669626D01*
X29440000Y8742263D01*
X29440000Y8816320D01*
X29447257Y8890000D01*
X29440000Y8963680D01*
X29440000Y9037737D01*
X29425552Y9110374D01*
X29418295Y9184051D01*
X29396805Y9254896D01*
X29382356Y9327534D01*
X29354015Y9395956D01*
X29332524Y9466802D01*
X29297625Y9532093D01*
X29269283Y9600517D01*
X29228136Y9662097D01*
X29193238Y9727387D01*
X29146270Y9784618D01*
X29105126Y9846194D01*
X29052764Y9898556D01*
X29005792Y9955792D01*
X28948556Y10002764D01*
X28896194Y10055126D01*
X28834618Y10096270D01*
X28777387Y10143238D01*
X28712097Y10178136D01*
X28650517Y10219283D01*
X28582093Y10247625D01*
X28516802Y10282524D01*
X28445956Y10304015D01*
X28377534Y10332356D01*
X28304896Y10346805D01*
X28234051Y10368295D01*
X28160374Y10375552D01*
X28087737Y10390000D01*
X18866959Y10390000D01*
X18892769Y10421450D01*
X22211321Y13740000D01*
X28013680Y13740000D01*
X28234051Y13761705D01*
X28516802Y13847476D01*
X28777387Y13986762D01*
X29005792Y14174208D01*
X29193238Y14402613D01*
X29332524Y14663198D01*
X29418295Y14945949D01*
X29447257Y15240000D01*
X29418295Y15534051D01*
X29332524Y15816802D01*
X29193238Y16077387D01*
X29005792Y16305792D01*
X28777387Y16493238D01*
X28721028Y16523363D01*
X28727387Y16526762D01*
X28955792Y16714208D01*
X29143238Y16942613D01*
X29282524Y17203198D01*
X29368295Y17485949D01*
X29397257Y17780000D01*
X29368295Y18074051D01*
X29282524Y18356802D01*
X29143238Y18617387D01*
X28955792Y18845792D01*
X28727387Y19033238D01*
X28466802Y19172524D01*
X28184051Y19258295D01*
X27963680Y19280000D01*
X26546320Y19280000D01*
X26325949Y19258295D01*
X26043198Y19172524D01*
X25982369Y19140010D01*
X20669564Y19140010D01*
X20595884Y19147267D01*
X20301833Y19118305D01*
X20019081Y19032534D01*
X19758497Y18893248D01*
X19530092Y18705802D01*
X19483124Y18648571D01*
X16164565Y15330010D01*
X13045437Y15330010D01*
X11645604Y16729841D01*
X11638295Y16804051D01*
X11552524Y17086802D01*
X11413238Y17347387D01*
X11225792Y17575792D01*
X10997387Y17763238D01*
X10736802Y17902524D01*
X10454051Y17988295D01*
X10233680Y18010000D01*
X10160000Y18017257D01*
X10086320Y18010000D01*
X2466320Y18010000D01*
X2245949Y17988295D01*
X1963198Y17902524D01*
X1702613Y17763238D01*
X1474208Y17575792D01*
X1286762Y17347387D01*
X1147476Y17086802D01*
X1061705Y16804051D01*
X1032743Y16510000D01*
X425000Y16510000D01*
X425000Y21156983D01*
X13240000Y21156983D01*
X13240000Y20763017D01*
X13316859Y20376622D01*
X13467623Y20012645D01*
X13686499Y19685074D01*
X13965074Y19406499D01*
X14292645Y19187623D01*
X14656622Y19036859D01*
X15043017Y18960000D01*
X15436983Y18960000D01*
X15823378Y19036859D01*
X16187355Y19187623D01*
X16514926Y19406499D01*
X16793501Y19685074D01*
X17012377Y20012645D01*
X17163141Y20376622D01*
X17240000Y20763017D01*
X17240000Y21156983D01*
X17163141Y21543378D01*
X17012377Y21907355D01*
X16793501Y22234926D01*
X16514926Y22513501D01*
X16187355Y22732377D01*
X15823378Y22883141D01*
X15436983Y22960000D01*
X15043017Y22960000D01*
X14656622Y22883141D01*
X14292645Y22732377D01*
X13965074Y22513501D01*
X13686499Y22234926D01*
X13467623Y21907355D01*
X13316859Y21543378D01*
X13240000Y21156983D01*
X425000Y21156983D01*
X425000Y23705000D01*
X31325000Y23705000D01*
X31325001Y425000D01*
G37*
X31325001Y425000D02*
X425000Y425000D01*
X425000Y16510000D01*
X1032743Y16510000D01*
X1061705Y16215949D01*
X1147476Y15933198D01*
X1286762Y15672613D01*
X1474208Y15444208D01*
X1702613Y15256762D01*
X1733972Y15240000D01*
X1702613Y15223238D01*
X1474208Y15035792D01*
X1286762Y14807387D01*
X1147476Y14546802D01*
X1061705Y14264051D01*
X1032743Y13970000D01*
X1061705Y13675949D01*
X1147476Y13393198D01*
X1286762Y13132613D01*
X1474208Y12904208D01*
X1702613Y12716762D01*
X1733972Y12700000D01*
X1702613Y12683238D01*
X1474208Y12495792D01*
X1286762Y12267387D01*
X1147476Y12006802D01*
X1061705Y11724051D01*
X1032743Y11430000D01*
X1061705Y11135949D01*
X1147476Y10853198D01*
X1286762Y10592613D01*
X1474208Y10364208D01*
X1702613Y10176762D01*
X1733972Y10160000D01*
X1702613Y10143238D01*
X1474208Y9955792D01*
X1286762Y9727387D01*
X1147476Y9466802D01*
X1061705Y9184051D01*
X1032743Y8890000D01*
X1061705Y8595949D01*
X1147476Y8313198D01*
X1286762Y8052613D01*
X1474208Y7824208D01*
X1702613Y7636762D01*
X1963198Y7497476D01*
X2245949Y7411705D01*
X2466320Y7390000D01*
X7808680Y7390000D01*
X7784875Y7366195D01*
X7743731Y7304619D01*
X7696763Y7247388D01*
X7661865Y7182098D01*
X7620718Y7120518D01*
X7592376Y7052094D01*
X7557477Y6986803D01*
X7535986Y6915957D01*
X7507645Y6847535D01*
X7493196Y6774897D01*
X7471706Y6704052D01*
X7464449Y6630375D01*
X7450001Y6557738D01*
X7450001Y6483681D01*
X7442744Y6410001D01*
X7450001Y6336321D01*
X7450001Y6262264D01*
X7464449Y6189627D01*
X7471706Y6115950D01*
X7493196Y6045105D01*
X7507645Y5972467D01*
X7535986Y5904045D01*
X7557477Y5833199D01*
X7592376Y5767908D01*
X7620718Y5699484D01*
X7661865Y5637904D01*
X7696763Y5572614D01*
X7743731Y5515383D01*
X7784875Y5453807D01*
X7837237Y5401445D01*
X7884209Y5344209D01*
X7941445Y5297237D01*
X7993807Y5244875D01*
X8055383Y5203731D01*
X8112614Y5156763D01*
X8177904Y5121865D01*
X8239484Y5080718D01*
X8307908Y5052376D01*
X8373199Y5017477D01*
X8444045Y4995986D01*
X8512467Y4967645D01*
X8585105Y4953196D01*
X8655950Y4931706D01*
X8729627Y4924449D01*
X8802264Y4910001D01*
X8876321Y4910001D01*
X8950001Y4902744D01*
X9023681Y4910001D01*
X14777705Y4910001D01*
X14903951Y4871705D01*
X15124322Y4850000D01*
X15124324Y4850000D01*
X15198001Y4842743D01*
X15271679Y4850000D01*
X17470000Y4850000D01*
X17470000Y4625012D01*
X17463479Y4615252D01*
X17335330Y4305872D01*
X17270000Y3977435D01*
X17270000Y3642565D01*
X17335330Y3314128D01*
X17463479Y3004748D01*
X17649523Y2726313D01*
X17886313Y2489523D01*
X18164748Y2303479D01*
X18474128Y2175330D01*
X18802565Y2110000D01*
X19137435Y2110000D01*
X19465872Y2175330D01*
X19775252Y2303479D01*
X20053687Y2489523D01*
X20290477Y2726313D01*
X20476521Y3004748D01*
X20604670Y3314128D01*
X20670000Y3642565D01*
X20670000Y3977435D01*
X20604670Y4305872D01*
X20476521Y4615252D01*
X20470000Y4625011D01*
X20470000Y4989990D01*
X27162369Y4989990D01*
X27223198Y4957476D01*
X27505949Y4871705D01*
X27726320Y4850000D01*
X27800000Y4842743D01*
X27873680Y4850000D01*
X28087737Y4850000D01*
X28160374Y4864448D01*
X28234051Y4871705D01*
X28304896Y4893195D01*
X28377534Y4907644D01*
X28445956Y4935985D01*
X28516802Y4957476D01*
X28582093Y4992375D01*
X28650517Y5020717D01*
X28712097Y5061864D01*
X28777387Y5096762D01*
X28834618Y5143730D01*
X28896194Y5184874D01*
X28948556Y5237236D01*
X29005792Y5284208D01*
X29052764Y5341444D01*
X29105126Y5393806D01*
X29146270Y5455382D01*
X29193238Y5512613D01*
X29228136Y5577903D01*
X29269283Y5639483D01*
X29297625Y5707907D01*
X29332524Y5773198D01*
X29354015Y5844044D01*
X29382356Y5912466D01*
X29396805Y5985104D01*
X29418295Y6055949D01*
X29425552Y6129626D01*
X29440000Y6202263D01*
X29440000Y6276320D01*
X29447257Y6350000D01*
X29440000Y6423680D01*
X29440000Y6497737D01*
X29425552Y6570374D01*
X29418295Y6644051D01*
X29396805Y6714896D01*
X29382356Y6787534D01*
X29354015Y6855956D01*
X29332524Y6926802D01*
X29297625Y6992093D01*
X29269283Y7060517D01*
X29228136Y7122097D01*
X29193238Y7187387D01*
X29146270Y7244618D01*
X29105126Y7306194D01*
X29052764Y7358556D01*
X29005792Y7415792D01*
X28948556Y7462764D01*
X28896194Y7515126D01*
X28834618Y7556270D01*
X28777387Y7603238D01*
X28746028Y7620000D01*
X28777387Y7636762D01*
X28834618Y7683730D01*
X28896194Y7724874D01*
X28948556Y7777236D01*
X29005792Y7824208D01*
X29052764Y7881444D01*
X29105126Y7933806D01*
X29146270Y7995382D01*
X29193238Y8052613D01*
X29228136Y8117903D01*
X29269283Y8179483D01*
X29297625Y8247907D01*
X29332524Y8313198D01*
X29354015Y8384044D01*
X29382356Y8452466D01*
X29396805Y8525104D01*
X29418295Y8595949D01*
X29425552Y8669626D01*
X29440000Y8742263D01*
X29440000Y8816320D01*
X29447257Y8890000D01*
X29440000Y8963680D01*
X29440000Y9037737D01*
X29425552Y9110374D01*
X29418295Y9184051D01*
X29396805Y9254896D01*
X29382356Y9327534D01*
X29354015Y9395956D01*
X29332524Y9466802D01*
X29297625Y9532093D01*
X29269283Y9600517D01*
X29228136Y9662097D01*
X29193238Y9727387D01*
X29146270Y9784618D01*
X29105126Y9846194D01*
X29052764Y9898556D01*
X29005792Y9955792D01*
X28948556Y10002764D01*
X28896194Y10055126D01*
X28834618Y10096270D01*
X28777387Y10143238D01*
X28712097Y10178136D01*
X28650517Y10219283D01*
X28582093Y10247625D01*
X28516802Y10282524D01*
X28445956Y10304015D01*
X28377534Y10332356D01*
X28304896Y10346805D01*
X28234051Y10368295D01*
X28160374Y10375552D01*
X28087737Y10390000D01*
X18866959Y10390000D01*
X18892769Y10421450D01*
X22211321Y13740000D01*
X28013680Y13740000D01*
X28234051Y13761705D01*
X28516802Y13847476D01*
X28777387Y13986762D01*
X29005792Y14174208D01*
X29193238Y14402613D01*
X29332524Y14663198D01*
X29418295Y14945949D01*
X29447257Y15240000D01*
X29418295Y15534051D01*
X29332524Y15816802D01*
X29193238Y16077387D01*
X29005792Y16305792D01*
X28777387Y16493238D01*
X28721028Y16523363D01*
X28727387Y16526762D01*
X28955792Y16714208D01*
X29143238Y16942613D01*
X29282524Y17203198D01*
X29368295Y17485949D01*
X29397257Y17780000D01*
X29368295Y18074051D01*
X29282524Y18356802D01*
X29143238Y18617387D01*
X28955792Y18845792D01*
X28727387Y19033238D01*
X28466802Y19172524D01*
X28184051Y19258295D01*
X27963680Y19280000D01*
X26546320Y19280000D01*
X26325949Y19258295D01*
X26043198Y19172524D01*
X25982369Y19140010D01*
X20669564Y19140010D01*
X20595884Y19147267D01*
X20301833Y19118305D01*
X20019081Y19032534D01*
X19758497Y18893248D01*
X19530092Y18705802D01*
X19483124Y18648571D01*
X16164565Y15330010D01*
X13045437Y15330010D01*
X11645604Y16729841D01*
X11638295Y16804051D01*
X11552524Y17086802D01*
X11413238Y17347387D01*
X11225792Y17575792D01*
X10997387Y17763238D01*
X10736802Y17902524D01*
X10454051Y17988295D01*
X10233680Y18010000D01*
X10160000Y18017257D01*
X10086320Y18010000D01*
X2466320Y18010000D01*
X2245949Y17988295D01*
X1963198Y17902524D01*
X1702613Y17763238D01*
X1474208Y17575792D01*
X1286762Y17347387D01*
X1147476Y17086802D01*
X1061705Y16804051D01*
X1032743Y16510000D01*
X425000Y16510000D01*
X425000Y21156983D01*
X13240000Y21156983D01*
X13240000Y20763017D01*
X13316859Y20376622D01*
X13467623Y20012645D01*
X13686499Y19685074D01*
X13965074Y19406499D01*
X14292645Y19187623D01*
X14656622Y19036859D01*
X15043017Y18960000D01*
X15436983Y18960000D01*
X15823378Y19036859D01*
X16187355Y19187623D01*
X16514926Y19406499D01*
X16793501Y19685074D01*
X17012377Y20012645D01*
X17163141Y20376622D01*
X17240000Y20763017D01*
X17240000Y21156983D01*
X17163141Y21543378D01*
X17012377Y21907355D01*
X16793501Y22234926D01*
X16514926Y22513501D01*
X16187355Y22732377D01*
X15823378Y22883141D01*
X15436983Y22960000D01*
X15043017Y22960000D01*
X14656622Y22883141D01*
X14292645Y22732377D01*
X13965074Y22513501D01*
X13686499Y22234926D01*
X13467623Y21907355D01*
X13316859Y21543378D01*
X13240000Y21156983D01*
X425000Y21156983D01*
X425000Y23705000D01*
X31325000Y23705000D01*
X31325001Y425000D01*
%TD*%
M02*
