%TF.GenerationSoftware,KiCad,Pcbnew,(5.1.6)-1*%
%TF.CreationDate,2024-10-21T11:16:37-05:00*%
%TF.ProjectId,board3,626f6172-6433-42e6-9b69-6361645f7063,rev?*%
%TF.SameCoordinates,PX3473bc0PY7270e00*%
%TF.FileFunction,Soldermask,Bot*%
%TF.FilePolarity,Negative*%
%FSLAX46Y46*%
G04 Gerber Fmt 4.6, Leading zero omitted, Abs format (unit mm)*
G04 Created by KiCad (PCBNEW (5.1.6)-1) date 2024-10-21 11:16:37*
%MOMM*%
%LPD*%
G01*
G04 APERTURE LIST*
%ADD10C,3.200000*%
%ADD11O,2.200000X3.470000*%
%ADD12O,3.470000X2.200000*%
%ADD13R,3.470000X2.200000*%
%ADD14O,1.900000X3.200000*%
%ADD15C,2.200000*%
G04 APERTURE END LIST*
D10*
%TO.C,REF\u002A\u002A*%
X3000000Y72500000D03*
%TD*%
%TO.C,REF\u002A\u002A*%
X46500000Y72500000D03*
%TD*%
%TO.C,REF\u002A\u002A*%
X46500000Y16000000D03*
%TD*%
%TO.C,REF\u002A\u002A*%
X3000000Y3000000D03*
%TD*%
D11*
%TO.C,C1*%
X40100000Y63335000D03*
X40100000Y58365000D03*
%TD*%
%TO.C,D1*%
X24400000Y70535000D03*
X24400000Y61645000D03*
%TD*%
D12*
%TO.C,J1*%
X37995000Y71430000D03*
X37995000Y68890000D03*
%TD*%
D11*
%TO.C,R1*%
X24660000Y30155000D03*
X24660000Y21265000D03*
%TD*%
%TO.C,R2*%
X27200000Y33965000D03*
X27200000Y42855000D03*
%TD*%
%TO.C,R3*%
X24660000Y42855000D03*
X24660000Y33965000D03*
%TD*%
%TO.C,R4*%
X27200000Y26345000D03*
X27200000Y17455000D03*
%TD*%
%TO.C,SW1*%
X39110000Y26195000D03*
X43610000Y26195000D03*
X39110000Y20965000D03*
X43610000Y20965000D03*
%TD*%
%TO.C,SW2*%
X43610000Y33665000D03*
X39110000Y33665000D03*
X43610000Y38895000D03*
X39110000Y38895000D03*
%TD*%
%TO.C,SW3*%
X39110000Y51595000D03*
X43610000Y51595000D03*
X39110000Y46365000D03*
X43610000Y46365000D03*
%TD*%
D12*
%TO.C,U1*%
X31645000Y63810000D03*
X31645000Y61270000D03*
X31645000Y58730000D03*
X31645000Y56190000D03*
X31645000Y53650000D03*
X31645000Y51110000D03*
D13*
X31645000Y48570000D03*
X31645000Y46030000D03*
X31645000Y43490000D03*
X31645000Y40950000D03*
X31645000Y38410000D03*
X31645000Y35870000D03*
X31645000Y33330000D03*
X31645000Y30790000D03*
X31645000Y28250000D03*
D12*
X4975000Y28250000D03*
X4975000Y30790000D03*
X4975000Y33330000D03*
X4975000Y35870000D03*
X4975000Y38410000D03*
X4975000Y40950000D03*
X4975000Y43490000D03*
X4975000Y46030000D03*
X4975000Y48570000D03*
X4975000Y51110000D03*
X4975000Y53650000D03*
X4975000Y56190000D03*
X4975000Y58730000D03*
X4975000Y61270000D03*
X4975000Y63810000D03*
%TD*%
D14*
%TO.C,C2*%
X31000000Y26150000D03*
X31000000Y22750000D03*
%TD*%
D11*
%TO.C,D2*%
X17300000Y25035000D03*
X17300000Y16145000D03*
%TD*%
%TO.C,M1*%
X8200000Y29535000D03*
X8200000Y43505000D03*
X17700000Y43505000D03*
X17700000Y29535000D03*
%TD*%
%TO.C,R5*%
X22120000Y30155000D03*
X22120000Y21265000D03*
%TD*%
D15*
%TO.C,R6*%
X14500000Y16800000D03*
D12*
X6245000Y16800000D03*
%TD*%
%TO.C,J2*%
X30835000Y3600000D03*
X30835000Y6140000D03*
X30835000Y8680000D03*
X30835000Y11220000D03*
X30835000Y13760000D03*
%TD*%
%TO.C,Q1*%
X8635000Y10900000D03*
X8635000Y8360000D03*
X8635000Y5820000D03*
%TD*%
D15*
X27200000Y49200000D03*
X27610000Y63810000D03*
X34330010Y17869990D03*
X34330010Y24469990D03*
X15299990Y62900010D03*
X15299990Y49000010D03*
X20300000Y39200000D03*
X20100000Y17500000D03*
M02*
