M48
; DRILL file {KiCad (5.1.6)-1} date 10/21/24 11:10:40
; FORMAT={-:-/ absolute / metric / decimal}
; #@! TF.CreationDate,2024-10-21T11:10:40-05:00
; #@! TF.GenerationSoftware,Kicad,Pcbnew,(5.1.6)-1
FMAT,2
METRIC
T1C0.800
T2C0.900
T3C3.200
%
G90
G05
T1
X4.34Y63.81
X4.34Y61.27
X4.34Y58.73
X4.34Y56.19
X4.34Y53.65
X4.34Y51.11
X4.34Y48.57
X4.34Y46.03
X4.34Y43.49
X4.34Y40.95
X4.34Y38.41
X4.34Y35.87
X4.34Y33.33
X4.34Y30.79
X4.34Y28.25
X6.88Y16.8
X14.5Y16.8
X15.3Y49.0
X15.3Y62.9
X17.3Y24.4
X17.3Y16.78
X17.7Y44.14
X20.1Y17.5
X20.3Y39.2
X22.12Y29.52
X22.12Y21.9
X24.4Y62.28
X24.4Y69.9
X24.66Y42.22
X24.66Y34.6
X24.66Y29.52
X24.66Y21.9
X27.2Y18.09
X27.2Y25.71
X27.2Y34.6
X27.2Y42.22
X27.2Y49.2
X27.61Y63.81
X31.0Y23.3
X31.0Y25.6
X32.28Y63.81
X32.28Y61.27
X32.28Y58.73
X32.28Y56.19
X32.28Y53.65
X32.28Y51.11
X32.28Y48.57
X32.28Y46.03
X32.28Y43.49
X32.28Y40.95
X32.28Y38.41
X32.28Y35.87
X32.28Y33.33
X32.28Y30.79
X32.28Y28.25
X34.33Y17.87
X34.33Y24.47
X40.1Y62.7
X40.1Y58.9
T2
X8.0Y5.82
X8.0Y8.36
X8.0Y10.9
X8.2Y44.14
X8.2Y28.9
X17.7Y28.9
X30.2Y13.76
X30.2Y11.22
X30.2Y8.68
X30.2Y6.14
X30.2Y3.6
X38.63Y68.89
X38.63Y71.43
X39.11Y52.23
X39.11Y45.73
X39.11Y39.53
X39.11Y33.03
X39.11Y26.83
X39.11Y20.33
X43.61Y20.33
X43.61Y26.83
X43.61Y33.03
X43.61Y39.53
X43.61Y45.73
X43.61Y52.23
T3
X3.0Y72.5
X3.0Y3.0
X46.5Y16.0
X46.5Y72.5
T0
M30
